<svg width="30" height="3" viewBox="0 0 30 3" fill="none" xmlns="http://www.w3.org/2000/svg">
<g clip-path="url(#clip0_201_152)">
<path d="M24.4529 1.53834C23.9004 1.45956 23.0972 1.38885 22.0936 1.33064L21.2654 1.28251C21.2373 1.28092 21.2034 1.27979 21.1668 1.27922C21.1302 1.27865 21.092 1.27866 21.0554 1.27925C21.0189 1.27984 20.9852 1.28099 20.9573 1.28259C20.9294 1.28419 20.9081 1.28621 20.8954 1.28846L20.5254 1.3557C20.2949 1.39789 19.8708 1.44098 19.2703 1.48335C19.2305 1.48605 19.185 1.48677 19.1537 1.48695C19.1223 1.48713 19.074 1.48677 19.0313 1.48425C18.9914 1.48209 18.9715 1.47884 18.9744 1.4756C19.0797 1.36706 18.5674 1.24465 17.4461 1.11141C16.5183 1.00072 15.229 0.914357 13.6182 0.854141L12.4428 0.810331C12.2891 0.804561 12.0928 0.812134 12.1013 0.823492L12.1639 0.91003C12.2066 0.969165 12.0984 1.02145 11.8423 1.0649C11.5292 1.11808 11.0796 1.16748 10.5047 1.21183C10.1046 1.24266 9.65115 1.27053 9.15284 1.29495C7.95271 1.35339 6.97684 1.42828 6.29831 1.514C5.62146 1.60047 5.26889 1.69567 5.26807 1.79218C5.26807 1.87728 5.53274 1.95967 6.05641 2.03737C6.56204 2.11219 7.29173 2.18009 8.20513 2.23731C9.12723 2.29501 10.1973 2.34044 11.3898 2.37199C12.625 2.4048 13.9341 2.42139 15.286 2.42139C16.6378 2.42139 17.947 2.4048 19.1821 2.37217C20.3716 2.3408 21.4533 2.29506 22.3668 2.23749C23.2889 2.1798 24.0118 2.11237 24.5155 2.03755C25.0384 1.96006 25.3066 1.87664 25.3038 1.79236C25.3038 1.70438 25.0192 1.61892 24.4529 1.53834V1.53834Z" fill="#F2994A"/>
</g>
<defs>
<clipPath id="clip0_201_152">
<rect width="29.1429" height="1.84615" fill="white" transform="translate(0.714355 0.692383)"/>
</clipPath>
</defs>
</svg>
