<svg width="158" height="126" viewBox="0 0 158 126" fill="none" xmlns="http://www.w3.org/2000/svg">
<circle cx="78.5238" cy="62.819" r="62.819" fill="#EDFBFE"/>
<circle cx="78.5236" cy="69.1009" r="53.3961" fill="white"/>
<mask id="mask0_2_7742" style="mask-type:luminance" maskUnits="userSpaceOnUse" x="0" y="36" width="158" height="90">
<path d="M0 36.4349H157.047V125.893H0V36.4349Z" fill="white"/>
</mask>
<g mask="url(#mask0_2_7742)">
<path d="M156.244 104.863C155.081 104.194 153.864 103.662 152.666 103.126C143.107 98.8426 133.064 97.2185 123.078 96.9856C112.866 96.7493 102.671 97.9075 92.5119 99.2287C81.7728 100.626 70.994 102.271 60.1965 101.598C54.819 101.265 49.529 100.24 44.2708 98.5997C39.8447 97.2185 35.1696 95.6544 30.6508 97.0854C29.5668 97.4282 28.5225 97.9607 27.5287 98.6596C27.1709 98.9092 27.4863 99.2953 27.7699 99.0956C27.9156 98.9957 28.0667 98.8959 28.2178 98.7994L31.7347 98.3135C25.3236 99.9442 19.037 102.434 12.9387 105.712C9.38457 107.622 5.89675 109.789 2.47518 112.145C1.41505 112.874 0.121696 113.503 0.0077322 115.446C-0.0850286 117.011 0.667663 118.152 1.68274 118.515C3.32594 119.101 5.09105 118.761 6.7528 118.551C8.84656 118.288 10.943 118.022 13.0367 117.759C17.2269 117.227 21.417 116.698 25.6045 116.169C27.6506 115.912 29.694 115.653 31.7374 115.393C33.8762 115.123 36.0283 114.721 38.175 114.581C38.6759 114.544 39.5399 114.461 39.3809 115.593C39.3518 115.802 39.2245 116.009 39.1265 116.169C38.9436 116.461 38.7077 116.718 38.5037 116.984C37.7616 117.962 37.0221 118.941 36.28 119.916C35.962 120.339 35.3445 120.878 35.1616 121.46C34.6739 123.001 36.4921 123.61 37.1732 123.64C37.963 123.673 38.7819 123.457 39.5638 123.337C40.6186 123.177 41.6734 123.004 42.7256 122.825C44.7876 122.479 46.8469 122.099 48.9035 121.71C57.1169 120.159 65.3276 118.435 73.6045 117.716C77.747 117.357 81.9 117.247 86.0425 117.55C86.4586 117.58 88.7617 117.53 87.8474 118.994C87.6406 119.327 87.259 119.583 87.0072 119.833C86.281 120.562 85.5469 121.267 84.8286 122.009C84.2085 122.652 83.8056 123.68 84.2588 124.738C84.8869 126.209 86.7475 125.873 87.7678 125.83C91.5949 125.66 95.4352 125.124 99.2543 124.728C107.29 123.903 115.326 122.984 123.348 121.933C127.321 121.41 131.291 120.861 135.259 120.265C136.213 120.126 137.165 119.979 138.119 119.833C138.757 119.733 139.621 119.826 140.207 119.4C141.606 118.382 139.799 116.788 139.144 116.312C138.193 115.623 137.175 115.133 136.139 114.771C141.129 113.363 146.088 111.719 150.999 109.825C152.303 109.319 153.604 108.8 154.9 108.264C155.568 107.988 156.713 107.852 156.986 106.72C157.204 105.822 156.79 105.179 156.244 104.863ZM78.7965 58.8128C79.3981 58.1438 80.0024 57.4749 80.604 56.806L80.5245 56.6595C81.0387 56.6063 81.3567 55.8641 81.3117 55.2185C81.2666 54.5695 81.5899 55.7643 81.3117 55.2185C80.2701 53.1518 78.8257 48.7387 79.7109 46.5589C80.1535 45.4706 80.9592 44.6885 81.7993 44.0695C82.3956 43.6335 83.0582 43.2475 83.7473 43.3173C84.6617 43.4139 85.4038 44.2925 85.9391 45.2276C86.4771 46.1662 86.9012 47.2212 87.585 47.9933C88.1495 45.6902 88.2422 43.2275 88.9022 40.9677C89.5595 38.7047 91.033 36.5414 92.9466 36.4383C94.7196 36.3451 96.2939 38.0956 96.9936 40.1457C97.6933 42.1991 97.7066 44.5021 97.7092 46.7319C98.4221 45.657 99.2358 44.6419 100.248 44.0628C101.263 43.4837 102.512 43.4039 103.455 44.1494C104.656 45.0979 105.061 47.0947 104.96 48.8752C104.862 50.6557 104.375 52.3663 104.229 54.1435C104.21 54.3665 104.2 54.6061 104.282 54.8058C104.369 55.0155 104.547 55.1453 104.719 55.2418C105.978 55.9573 107.59 55.7177 108.597 56.9058C98.6474 56.9923 88.7008 57.628 78.7965 58.8128Z" fill="#A2DDAC"/>
</g>
<path d="M137.3 96.7095C136.418 96.1937 135.403 96.1571 134.435 96.3035C134.995 95.3783 134.515 93.9372 133.712 93.3648C132.906 92.7891 131.923 92.8456 131.003 92.9488C131.661 91.8805 131.692 90.2697 131.077 89.1615C130.46 88.0532 129.243 87.5407 128.218 87.9567C129.066 86.093 128.303 83.5005 126.821 82.4388C125.339 81.3738 123.402 81.6867 121.966 82.8448C120.529 83.9997 119.541 85.88 118.889 87.8602L120.94 100.387C126.71 100.407 132.479 100.42 138.247 100.437C138.411 100.44 138.588 100.437 138.724 100.32C138.92 100.154 138.965 99.8146 138.957 99.5151C138.909 98.2937 138.186 97.2254 137.3 96.7095ZM34.0969 90.6891C34.4308 93.5113 34.5342 96.3767 34.4069 99.2255C27.6142 100.866 20.9089 103.069 14.3493 105.815L14.4209 105.506C13.6735 105.699 12.8651 104.92 12.8174 103.965C12.7724 103.006 13.4986 102.111 14.2592 102.187C13.215 101.096 13.6523 98.7563 14.8078 97.8643C15.9634 96.9758 17.4687 97.2254 18.7276 97.861C18.4414 96.3434 18.4891 94.6461 19.1888 93.3648C19.8911 92.0802 21.37 91.4179 22.4381 92.2067C22.2923 89.4044 23.6228 86.5989 25.6132 85.3176C27.6009 84.0396 30.1346 84.2959 31.9899 85.8634C32.4908 86.286 32.9493 86.8052 33.2806 87.4409C33.7815 88.396 33.9643 89.5575 34.0969 90.6891Z" fill="#286053"/>
<path d="M100.75 103.991C101.426 105.279 102.025 106.354 102.396 107.01C102.563 107.306 102.367 107.689 102.057 107.679L84.2729 107.093C84.5062 107.958 84.6228 108.471 84.6228 108.471C44.0543 115.932 27.1611 104.82 27.1611 104.82L32.3743 62.1775C32.3743 62.1775 34.8789 59.7846 37.9877 56.9025C39.6786 55.9307 41.6451 55.0388 43.291 54.929C45.6286 54.7726 46.9219 51.155 47.566 48.4293C48.3876 47.777 49.0342 47.321 49.4132 47.1447C51.9416 45.9699 54.1335 52.2932 54.8093 55.6345C55.4851 58.9759 56.5797 58.4334 56.5797 58.4334C63.3274 59.3387 62.3998 64.1244 63.5819 69.183C64.7613 74.2417 65.6889 73.3365 65.6889 73.3365C67.7376 74.3049 69.3013 75.6128 70.4276 77.217C70.6715 76.7211 70.9551 76.2518 71.289 75.8125C71.289 75.8125 86.1149 68.4642 87.615 70.8637C88.9083 72.9437 87.562 77.3601 89.6769 79.9859C89.7167 78.5249 89.9075 77.5198 90.2388 77.2336C90.2388 77.2336 93.9943 76.1254 100.702 76.6645C102.693 77.9924 105.603 79.4967 108.5 79.4235C113.413 79.3003 117.272 80.565 117.617 80.6815C118.295 80.9411 118.979 81.2106 119.679 81.5002L125.03 102.104C125.03 102.104 109.263 105 100.75 103.991Z" fill="#F5BF19"/>
<path d="M95.7584 88.5125C94.9686 85.454 93.4976 82.5885 90.9268 81.0643C87.7226 79.1639 88.5919 75.0238 88.1095 72.3048C88.136 74.3815 87.5768 76.4116 87.7385 78.4917C87.7994 79.3037 87.9876 80.1357 88.3984 80.7781C88.8887 81.5435 89.6547 81.8796 90.3252 82.3156C91.5867 83.141 92.7476 84.1893 93.7653 85.434C94.5207 86.3592 95.1912 87.3942 95.7584 88.5125ZM122.201 94.3832C117.091 93.3515 111.894 93.2416 106.76 94.057C106.333 94.1236 105.135 93.5079 105.284 92.789C105.297 92.7324 105.257 92.363 105.231 92.2332C105.125 92.2232 104.976 92.17 104.897 92.16C104.743 92.1434 104.589 92.1367 104.436 92.1367C103.712 92.1267 102.98 92.1866 102.262 92.2865C100.805 92.4828 99.3681 92.8789 97.982 93.4713C97.8176 93.5412 97.6427 93.5278 97.4678 93.4713C97.489 93.6776 97.5102 93.8873 97.5314 94.0936C97.55 94.2134 97.5685 94.3332 97.5844 94.453C97.5924 94.5229 97.5924 94.5795 97.5897 94.6294C97.7355 95.934 97.9131 97.2719 98.1277 98.5166C97.2584 96.4599 96.5879 94.4697 96.4845 93.0652C96.4766 92.9155 96.4607 92.769 96.4474 92.6226C96.3441 92.4496 96.2911 92.2732 96.4077 92.1833C96.405 92.1633 96.4024 92.14 96.3997 92.1201C96.1029 90.9885 95.6894 89.9069 95.1726 88.8985C94.4093 87.4142 93.4446 86.1029 92.3368 85.0213C91.7643 84.4589 91.1521 83.953 90.5134 83.5204C89.8481 83.0678 89.1166 82.7283 88.5256 82.1259C87.4522 81.0277 86.9831 79.3536 86.9301 77.6563C86.8665 75.5297 87.5132 73.4563 87.3091 71.3297C87.227 70.501 88.0088 70.8871 88.0671 71.4761C88.0936 71.7457 88.1069 72.0153 88.1095 72.2849C89.8004 72.1983 91.9551 72.2815 92.2202 73.2334C92.6707 74.8275 90.4286 78.9376 93.3439 79.946C96.2593 80.9511 97.3035 85.9865 97.1551 87.6671C97.1074 88.2163 97.163 89.8171 97.322 91.8106C99.0076 91.1882 100.746 90.8155 102.506 90.7423C103.54 90.699 104.568 90.7023 105.519 91.2814C105.954 91.5443 106.434 91.9537 106.728 92.4795C111.565 91.8472 116.465 92.0069 121.27 92.9787C121.694 93.0652 122.19 93.3315 122.458 93.7741C122.664 94.1103 122.58 94.4597 122.201 94.3832ZM87.6961 90.2597C87.651 90.2264 87.606 90.1898 87.5583 90.1632C87.2959 90.0101 86.9884 90.04 86.7102 90.0667C84.4574 90.253 82.2232 90.9087 80.1109 91.9137C80.2619 92.1267 80.4077 92.3464 80.5482 92.5694C81.6056 92.3264 82.5863 91.7606 83.604 91.3413C84.6164 90.9186 85.6686 90.6491 86.7208 90.4394C87.0441 90.3728 87.3701 90.3163 87.6961 90.2597ZM63.4324 68.4909C62.4703 63.6951 63.0189 59.2955 56.5786 58.4335C56.5786 58.4335 55.4841 58.976 54.8082 55.6346C54.2941 53.0853 52.8973 48.8087 51.1402 47.4409C51.5563 50.0834 52.1235 52.6826 52.8523 55.2186C53.3479 56.9359 53.8992 59.7248 55.5848 60.1175C57.1432 60.4802 58.8129 59.5351 60.2334 60.7864C61.4446 61.8547 61.5506 63.8183 62.0092 65.4324C62.3298 66.5639 62.8228 67.5856 63.4324 68.4909ZM93.8899 90.4128C91.7299 91.2082 89.4877 91.4012 87.2747 91.8272C86.1668 92.0402 85.0749 92.3264 84.0148 92.7857C83.1163 93.1817 82.2391 93.631 81.3141 93.8939C86.1324 102.903 86.4186 107.669 84.5316 108.091C84.0386 106.095 81.5155 96.593 76.7953 91.0018C76.7953 91.0018 76.0108 90.5126 75.1176 89.5342C75.2078 89.654 75.2793 89.7971 75.327 89.9435C75.3827 90.1099 75.4913 90.7323 75.1998 90.699C73.2015 90.4793 71.1952 90.3595 69.1889 90.3462C65.6348 90.3329 62.0807 90.6491 58.5664 91.298C56.8145 91.6242 55.0733 92.0302 53.3453 92.5194C52.6111 92.7291 51.7259 93.1917 51.0103 92.6792C50.793 92.5228 50.5942 92.2765 50.4484 91.9869C46.8281 92.9421 43.2078 93.8906 39.5874 94.8458C39.2588 94.929 38.9646 94.2866 38.9089 93.9106C35.5192 94.8324 32.2142 95.9607 28.9808 97.5814C28.517 97.8111 27.9022 96.4266 28.3103 96.2236C31.8087 94.4697 35.392 93.2716 39.068 92.2998C39.4019 92.2133 39.6961 92.8689 39.7491 93.2416C43.3217 92.3031 46.897 91.3646 50.4723 90.4228C50.8168 90.3329 51.1349 90.9985 51.1534 91.4611C51.2011 91.4778 51.2515 91.4844 51.3019 91.4811C51.4105 91.4811 51.5165 91.4611 51.6252 91.4378C51.816 91.4012 52.0015 91.338 52.1897 91.2847C52.635 91.1516 53.0776 91.0251 53.5228 90.9053C54.3603 90.6757 55.2005 90.4694 56.0433 90.283C62.1973 88.9118 68.4892 88.579 74.7095 89.2679C74.8182 89.2812 74.9162 89.3312 75.001 89.4077C73.9462 88.2129 72.7827 86.3459 72.6051 83.8132C72.2686 79.0242 70.0741 75.4132 65.6878 73.3365C65.6878 73.3365 64.9537 74.0487 63.9571 70.6341C62.5286 69.2563 61.4234 67.3826 60.904 65.2028C60.5011 63.5054 60.2334 61.2191 58.5319 60.9462C56.9338 60.6866 55.2535 61.5386 53.8541 60.1341C53.2604 59.5417 52.8867 58.6698 52.5926 57.8111C52.2056 56.6763 51.869 55.5081 51.5563 54.34C50.9229 51.9704 50.4219 49.5476 50.0509 47.0915C50.0456 47.0648 50.0456 47.0349 50.0483 47.0083C49.8892 47.0083 49.7302 47.0316 49.5685 47.0881C49.7117 46.955 49.8707 46.8419 50.0403 46.7553C50.0403 46.7553 54.4743 44.3625 56.258 45.2178C58.0443 46.0698 57.2386 54.6961 60.6257 55.0156C64.0128 55.3351 65.8044 57.2554 66.6976 64.7102C67.5934 72.1684 71.1766 68.9701 73.0663 74.082C74.7201 78.5582 74.4683 85.9698 77.5135 88.8919C78.1152 89.4709 78.685 90.0866 79.2203 90.7356C81.3804 89.6839 83.6782 88.9984 85.9919 88.8053C86.5273 88.7587 87.0096 88.822 87.4655 89.1947C87.712 89.3944 87.8789 89.5808 88.1864 89.5941C88.4885 89.6107 88.7907 89.5209 89.0875 89.4576C90.3331 89.1781 91.5788 88.8952 92.8244 88.6123C92.9808 88.579 93.1955 88.7854 93.3651 89.0416C93.9137 89.0316 94.4756 90.1965 93.8899 90.4128ZM38.9805 80.7048C38.8109 80.8014 37.6474 80.8879 37.3426 80.6183C36.0996 81.3039 34.9017 82.1093 33.762 83.0278C34.2126 82.9712 34.6684 82.9313 35.119 82.8947C36.6482 82.7782 38.1828 82.6384 39.5768 81.7598C41.016 80.8546 42.3067 79.5766 43.6954 78.5549C44.4084 78.0258 45.1372 77.5199 45.8713 77.0373C43.5417 78.1722 41.2439 79.4136 38.9805 80.7048ZM30.2928 84.2892C32.4766 82.1825 34.9096 80.5351 37.499 79.367C37.6394 79.3037 38.5512 79.2704 38.9408 79.4502C40.0777 78.8045 41.2174 78.1655 42.3756 77.5831C45.5268 75.9956 48.7469 74.6012 52.0174 73.4463C52.1924 73.3864 52.3699 73.3232 52.5449 73.2633C52.6668 73.2034 52.7913 73.1402 52.9132 73.0803C52.9451 73.0669 52.9848 73.0769 53.0246 73.0969C55.924 72.1118 58.9533 71.2731 61.9561 71.3929C62.1099 71.3996 62.9394 71.4162 63.0163 71.6891C63.1011 71.9853 62.5154 71.9487 62.3855 71.9421C60.8775 71.8822 59.2025 72.215 57.6467 72.601C56.258 72.9471 54.8824 73.3631 53.5202 73.8357C53.544 73.8956 53.5573 73.9422 53.544 73.9489C51.7471 74.8142 49.974 75.756 48.2407 76.8077C46.7115 77.7329 45.2088 78.7413 43.7564 79.8462C42.3968 80.8812 41.114 82.2124 39.6325 82.9546C37.2313 84.156 34.4564 83.3773 32.0711 84.5121C32.0367 84.5454 32.0022 84.5754 31.9678 84.6087C31.8829 84.6919 31.7637 84.7285 31.6338 84.7418C31.4668 84.8449 31.2999 84.9548 31.1356 85.0779C31.0295 85.1578 30.8043 84.8749 30.6505 84.6087C30.4306 84.5388 30.1602 84.4189 30.2928 84.2892ZM31.6842 71.1234C35.1004 68.0549 38.8983 66.0547 42.8553 64.3707C43.0541 64.2875 43.5523 64.9498 43.7246 65.2826C43.7617 65.266 43.7988 65.2493 43.8359 65.226C44.1725 65.0397 44.4826 64.7535 44.8006 64.5172C45.4817 64.0113 46.1788 63.5321 46.8891 63.0828C48.3441 62.1576 49.8468 61.3588 51.3814 60.6699C51.6994 60.5302 52.3222 61.7549 52.309 61.7615C50.2311 62.6934 48.2169 63.8316 46.2954 65.1994C45.8263 65.5289 45.3784 65.915 44.904 66.2278C44.5276 66.4774 44.1248 66.6238 43.7299 66.3742C43.5974 66.291 43.335 66.0514 43.1018 65.7619C39.3913 67.386 35.8319 69.3229 32.6144 72.215C32.3998 72.4047 31.5861 71.2132 31.6842 71.1234Z" fill="#DA8917"/>
<path d="M119.022 92.0735C119.069 92.0202 119.085 91.947 119.096 91.8738C119.406 90.1399 119.252 88.3494 119.093 86.5922C119.075 86.3858 119.048 86.1562 118.905 86.0197C118.72 85.8433 118.412 85.9066 118.229 86.0896C118.044 86.2693 117.954 86.5323 117.874 86.7852C117.312 88.5524 116.875 90.3662 116.57 92.2066L118.807 92.1533C118.884 92.1467 118.969 92.1334 119.022 92.0735ZM117.32 120.478C117.336 120.472 117.349 120.465 117.363 120.455C117.352 120.422 117.341 120.389 117.328 120.352C117.315 120.365 117.291 120.379 117.291 120.385C117.296 120.419 117.31 120.448 117.32 120.478ZM117.834 120.988C117.842 121.018 117.895 121.058 117.911 121.044C117.98 121.004 118.044 120.948 118.11 120.894C118.102 120.868 118.091 120.838 118.084 120.808C118.007 120.828 117.93 120.841 117.858 120.874C117.84 120.884 117.824 120.958 117.834 120.988ZM123.371 86.1129C123.305 86.1096 123.236 86.0963 123.167 86.1096C123.151 86.1129 123.124 86.1861 123.132 86.2194C123.14 86.2527 123.183 86.2693 123.238 86.3193C123.281 86.2727 123.331 86.2227 123.379 86.1662C123.384 86.1562 123.376 86.1129 123.371 86.1129ZM115.613 102.833C115.587 102.89 115.56 102.94 115.534 102.989C115.547 103.003 115.568 103.023 115.574 103.019C115.611 102.989 115.64 102.956 115.669 102.923C115.669 102.92 115.651 102.893 115.613 102.833ZM115.91 114.558C115.924 114.564 115.937 114.568 115.947 114.571C115.958 114.561 115.969 114.548 115.977 114.535C115.963 114.531 115.947 114.518 115.937 114.525C115.926 114.528 115.918 114.545 115.91 114.558ZM119.448 117.19L119.409 117.2L119.438 117.227L119.448 117.19ZM116.409 85.4174C116.414 85.414 116.411 85.3941 116.414 85.3774C116.401 85.3741 116.387 85.3674 116.371 85.3608C116.371 85.3841 116.369 85.404 116.366 85.4273C116.382 85.424 116.395 85.424 116.409 85.4174ZM116.003 97.7844C115.992 97.7877 115.974 97.7877 115.974 97.7877C115.971 97.8244 115.971 97.8643 115.969 97.8976C115.982 97.8976 115.992 97.8976 116.006 97.8976C116.006 97.861 116.003 97.821 116.003 97.7844ZM116.87 118.898C116.878 118.861 116.894 118.784 116.891 118.781C116.83 118.758 116.772 118.741 116.711 118.721C116.705 118.748 116.697 118.771 116.689 118.794C116.75 118.831 116.811 118.864 116.87 118.898ZM119.613 117.636C119.626 117.626 119.642 117.616 119.658 117.603C119.637 117.57 119.621 117.536 119.599 117.506C119.586 117.516 119.56 117.536 119.562 117.54C119.576 117.573 119.594 117.606 119.613 117.636ZM122.507 102.071C122.533 102.054 122.557 102.028 122.581 102.004C122.565 101.994 122.549 101.988 122.536 101.978C122.515 102.001 122.494 102.021 122.472 102.041C122.483 102.054 122.502 102.078 122.507 102.071ZM115.6 115.273C115.613 115.263 115.627 115.253 115.64 115.243C115.632 115.227 115.624 115.213 115.616 115.2C115.598 115.217 115.576 115.233 115.555 115.253C115.571 115.257 115.587 115.267 115.6 115.273ZM122.157 98.8461L122.146 98.7961L122.128 98.8394L122.157 98.8461ZM122.793 94.9955C122.806 95.0022 122.822 94.9855 122.838 94.9755C122.809 94.9722 122.785 94.9622 122.759 94.9589C122.769 94.9722 122.78 94.9955 122.793 94.9955ZM122.902 107.622L122.862 107.639L122.902 107.662V107.622ZM121.047 108.374C121.057 108.364 121.07 108.354 121.081 108.344C121.076 108.331 121.068 108.318 121.057 108.304C121.041 108.321 121.025 108.338 121.007 108.358C121.02 108.361 121.033 108.371 121.047 108.374ZM119.846 96.8892C119.825 96.6063 119.796 96.3167 119.684 96.0572C119.573 95.8009 119.361 95.5812 119.099 95.5446C118.828 95.508 118.558 95.6844 118.396 95.9274C118.235 96.167 118.16 96.4599 118.097 96.7494C117.832 97.9874 117.747 99.2687 117.853 100.533L118.017 100.55C118.64 100.617 119.263 100.69 119.888 100.756C119.96 99.4684 119.947 98.1771 119.846 96.8892ZM121.664 101.102C121.68 101.136 121.691 101.192 121.712 101.202C121.744 101.216 121.781 101.189 121.815 101.179C121.789 101.129 121.762 101.083 121.736 101.036C121.712 101.056 121.688 101.079 121.664 101.102ZM121.463 86.895C121.484 86.9216 121.502 86.9449 121.521 86.9682C121.542 86.935 121.563 86.9017 121.579 86.8651C121.582 86.8584 121.547 86.8185 121.542 86.8218C121.513 86.8451 121.489 86.8717 121.463 86.895ZM121.863 97.6147C121.85 97.5581 121.828 97.4982 121.799 97.4549C121.791 97.4416 121.738 97.4749 121.706 97.4882C121.725 97.5548 121.744 97.6247 121.767 97.7079C121.82 97.6579 121.866 97.6313 121.863 97.6147ZM118.02 114.738C117.993 114.754 117.97 114.771 117.943 114.787C117.964 114.807 117.988 114.827 118.009 114.851C118.017 114.831 118.025 114.814 118.036 114.797C118.028 114.777 118.025 114.758 118.02 114.738ZM115.171 97.0522C115.142 97.0389 115.105 97.0656 115.07 97.0722C115.086 97.1121 115.102 97.1488 115.118 97.1854C115.15 97.1754 115.181 97.1621 115.213 97.1521C115.197 97.1188 115.192 97.0622 115.171 97.0522ZM113.586 92.3331C113.618 92.3331 113.652 92.3331 113.684 92.3331C113.679 92.3064 113.665 92.2565 113.663 92.2565C113.631 92.2632 113.599 92.2765 113.567 92.2898C113.573 92.3064 113.581 92.3231 113.586 92.3331ZM113.71 91.7473C113.732 91.7407 113.753 91.7307 113.771 91.724C113.766 91.7074 113.758 91.6907 113.753 91.6741C113.742 91.6808 113.724 91.6808 113.721 91.6907C113.71 91.7074 113.713 91.7274 113.71 91.7473ZM110.249 105.699C110.252 105.695 110.257 105.672 110.26 105.662C110.249 105.659 110.233 105.649 110.223 105.649C110.217 105.649 110.212 105.672 110.209 105.685C110.223 105.689 110.236 105.699 110.249 105.699ZM115.431 105.293C115.446 105.283 115.473 105.266 115.473 105.263C115.465 105.226 115.452 105.189 115.438 105.153C115.425 105.163 115.399 105.179 115.399 105.186C115.404 105.219 115.42 105.256 115.431 105.293ZM109.921 95.8541C109.828 95.4248 109.624 94.9323 109.221 94.8724C108.993 94.8391 108.77 94.9589 108.587 95.112C107.705 95.8375 107.495 97.1554 107.35 98.3435C107.286 98.8594 107.225 99.3719 107.162 99.8877L107.289 101.585C108.023 101.588 108.757 101.572 109.489 101.532C109.595 101.522 109.711 101.512 109.783 101.425C109.833 101.362 109.846 101.272 109.857 101.189C110.08 99.4152 110.3 97.5947 109.921 95.8541ZM108.897 119.147C108.905 119.18 108.921 119.21 108.935 119.244C108.945 119.23 108.956 119.214 108.966 119.197C108.953 119.167 108.94 119.134 108.927 119.101C108.916 119.117 108.895 119.134 108.897 119.147ZM109.054 106.334C109.067 106.298 109.083 106.261 109.094 106.224C109.094 106.218 109.067 106.201 109.054 106.188C109.041 106.221 109.022 106.254 109.017 106.291C109.014 106.301 109.041 106.321 109.054 106.334ZM112.057 116.654C112.065 116.701 112.099 116.748 112.123 116.791C112.126 116.791 112.16 116.774 112.165 116.758C112.179 116.721 112.2 116.671 112.189 116.641C112.163 116.568 112.12 116.508 112.065 116.408C112.062 116.521 112.049 116.591 112.057 116.654ZM110.119 113.563C110.114 113.549 110.111 113.529 110.109 113.526C110.095 113.526 110.082 113.533 110.05 113.543C110.085 113.553 110.101 113.556 110.119 113.563ZM109.981 106.933C109.992 106.94 110.011 106.927 110.024 106.92C110.016 106.907 110.013 106.883 110 106.877C109.992 106.87 109.974 106.88 109.96 106.883C109.966 106.903 109.971 106.927 109.981 106.933ZM114.84 107.815C114.85 107.779 114.861 107.739 114.871 107.702C114.845 107.732 114.816 107.769 114.789 107.802C114.805 107.805 114.837 107.819 114.84 107.815ZM114.885 107.662C114.879 107.675 114.874 107.689 114.871 107.702C114.877 107.692 114.887 107.685 114.893 107.675C114.903 107.672 114.911 107.669 114.922 107.662C114.908 107.662 114.895 107.662 114.885 107.662ZM114.983 107.639C114.961 107.645 114.94 107.655 114.922 107.662C114.948 107.665 114.977 107.665 115.006 107.665C114.999 107.659 114.988 107.639 114.983 107.639ZM114.731 120.675C114.76 120.695 114.789 120.718 114.837 120.751C114.861 120.695 114.882 120.642 114.903 120.588C114.871 120.572 114.824 120.528 114.808 120.542C114.773 120.572 114.755 120.628 114.731 120.675ZM114.977 109.985C114.946 109.968 114.914 109.935 114.887 109.938C114.869 109.942 114.861 110.005 114.845 110.042C114.877 110.052 114.908 110.065 114.94 110.075C114.953 110.045 114.964 110.015 114.977 109.985ZM113.809 91.2048C113.835 91.2714 113.848 91.3113 113.864 91.3513C113.907 91.298 113.952 91.2481 113.997 91.1949C114.14 91.1982 114.291 91.1882 114.384 91.0784C114.442 91.0085 114.466 90.922 114.487 90.8354C114.948 89.0283 114.967 87.088 114.543 85.2709C114.474 84.9681 114.365 84.6386 114.105 84.5088C113.88 84.399 113.604 84.4855 113.416 84.6552C113.223 84.825 113.101 85.0679 112.99 85.3042C112.165 87.0415 111.818 88.8952 111.619 90.8321C112.346 91.0185 113.088 91.135 113.832 91.1849C113.824 91.1915 113.816 91.1982 113.809 91.2048ZM114.161 107.832C114.177 107.782 114.195 107.725 114.209 107.672C114.209 107.669 114.177 107.652 114.177 107.652C114.148 107.702 114.124 107.755 114.097 107.809C114.113 107.815 114.129 107.819 114.161 107.832ZM113.769 116.425C113.761 116.478 113.798 116.545 113.814 116.608C113.856 116.575 113.901 116.551 113.904 116.528C113.904 116.461 113.888 116.395 113.88 116.328C113.84 116.362 113.777 116.385 113.769 116.425ZM114.49 115.513C114.514 115.486 114.537 115.46 114.561 115.433C114.545 115.4 114.535 115.347 114.514 115.34C114.482 115.333 114.447 115.36 114.413 115.373C114.439 115.42 114.463 115.466 114.49 115.513ZM115.242 100.996C115.372 99.8478 115.245 98.6896 115.12 97.5415C115.038 96.786 114.924 95.964 114.415 95.4415C114.355 95.3816 114.288 95.3217 114.209 95.3083C114.132 95.2984 114.055 95.3283 113.986 95.3649C113.501 95.6312 113.313 96.2635 113.188 96.8392C112.955 97.9175 112.775 99.0058 112.656 100.104C112.608 100.53 112.568 100.973 112.701 101.382L113.09 101.499C113.679 101.455 114.267 101.415 114.855 101.375C114.961 101.369 115.078 101.355 115.152 101.272C115.216 101.202 115.234 101.096 115.242 100.996ZM114.286 108.235C114.296 108.238 114.309 108.218 114.333 108.205C114.301 108.201 114.278 108.198 114.251 108.195C114.262 108.208 114.272 108.231 114.286 108.235ZM104.691 51.0086C104.681 51.0419 104.66 51.0851 104.67 51.1051C104.673 51.1117 104.678 51.1151 104.681 51.1217C104.689 51.0851 104.694 51.0518 104.699 51.0152C104.697 51.0119 104.694 51.0086 104.691 51.0086ZM101.72 47.4975C101.72 47.4875 101.72 47.4808 101.723 47.4742C101.718 47.4742 101.71 47.4742 101.705 47.4775L101.72 47.4975ZM123.429 106.923C123.421 106.873 123.389 106.827 123.368 106.78C123.355 106.82 123.339 106.857 123.326 106.893C123.342 106.937 123.355 106.973 123.371 107.016C123.389 106.983 123.432 106.95 123.429 106.923ZM101.707 47.5075C101.712 47.5041 101.715 47.5008 101.72 47.4975L101.705 47.4775C101.705 47.4875 101.707 47.5008 101.707 47.5075ZM101.742 47.2379C101.734 47.351 101.728 47.4143 101.723 47.4742C101.779 47.4642 101.837 47.4509 101.946 47.4309C101.853 47.3411 101.808 47.3011 101.742 47.2379ZM101.182 54.127C101.217 54.1602 101.251 54.1935 101.288 54.2301C101.302 54.1802 101.326 54.1369 101.318 54.1236C101.299 54.0904 101.267 54.0637 101.238 54.0571C101.225 54.0571 101.201 54.1003 101.182 54.127ZM102.319 54.7127C102.335 54.7393 102.351 54.7826 102.37 54.7859C102.396 54.7892 102.428 54.7626 102.457 54.7526C102.439 54.7227 102.425 54.6761 102.407 54.6728C102.38 54.6694 102.349 54.6994 102.319 54.7127ZM101.225 52.7525C101.209 52.7858 101.169 52.829 101.177 52.849C101.193 52.9022 101.23 52.9422 101.262 52.9954C101.299 52.9422 101.339 52.8923 101.336 52.8856C101.304 52.839 101.265 52.7957 101.225 52.7525ZM101.498 52.2C101.519 52.1701 101.543 52.1434 101.564 52.1168C101.559 52.0969 101.553 52.0769 101.551 52.0602C101.527 52.0769 101.498 52.0935 101.479 52.1201C101.474 52.1335 101.49 52.1734 101.498 52.2ZM101.633 49.4943C101.636 49.5176 101.691 49.5442 101.715 49.5342C101.734 49.5276 101.76 49.4544 101.75 49.4344C101.734 49.4045 101.694 49.3945 101.662 49.3778C101.652 49.4144 101.625 49.461 101.633 49.4943ZM101.532 43.6869L101.548 43.7268L101.559 43.6869H101.532ZM95.0337 55.8742C95.0416 55.8343 95.0681 55.7877 95.0575 55.7577C95.0443 55.7278 94.9992 55.7111 94.9701 55.6878C94.9621 55.7278 94.9409 55.7744 94.9489 55.7976C94.9648 55.8309 95.0045 55.8509 95.0337 55.8742ZM93.1228 38.3853C93.1493 38.4019 93.1758 38.4185 93.2023 38.4285C93.2129 38.4318 93.2261 38.4052 93.2394 38.3886C93.2102 38.3719 93.1811 38.352 93.1519 38.342C93.1466 38.3387 93.1334 38.3686 93.1228 38.3853ZM92.9214 47.2911C93.1413 47.2745 93.3719 47.2612 93.6025 47.2412C93.6131 47.2412 93.6237 47.2079 93.6422 47.1747C93.6369 47.0548 93.629 46.9217 93.621 46.772C93.3534 46.7686 93.1705 46.9251 92.9797 47.0548C92.9028 47.1081 92.8683 47.1647 92.9214 47.2911ZM92.1925 56.227C92.2137 56.2536 92.2323 56.2802 92.2508 56.3035C92.2667 56.2736 92.2826 56.2403 92.2906 56.207C92.2906 56.1937 92.2614 56.1604 92.2588 56.1604C92.2349 56.1804 92.2137 56.2037 92.1925 56.227ZM101.331 48.4227C101.318 48.4094 101.275 48.4526 101.127 48.5425C101.227 48.5791 101.28 48.609 101.333 48.6124C101.365 48.619 101.397 48.5824 101.429 48.5625C101.394 48.5159 101.368 48.4593 101.331 48.4227ZM102.722 47.0149C102.712 46.9949 102.701 46.975 102.693 46.9517C102.688 46.965 102.682 46.9816 102.677 46.9949C102.693 47.0016 102.709 47.0083 102.722 47.0149ZM94.0345 43.1677C94.0716 43.201 94.1114 43.2376 94.1458 43.2675C94.1829 43.2342 94.2068 43.2109 94.2333 43.191C94.1962 43.1477 94.1644 43.0945 94.1219 43.0778C94.1034 43.0678 94.0636 43.1344 94.0345 43.1677ZM106.343 55.9108C106.332 55.9474 106.372 56.0106 106.393 56.0772C106.459 56.0406 106.515 56.024 106.549 55.984C106.573 55.9541 106.581 55.9041 106.589 55.8542C106.528 55.8409 106.47 55.8243 106.411 55.811C106.382 55.8376 106.353 55.8709 106.343 55.9108ZM108.452 109.659C108.436 109.689 108.473 109.762 108.519 109.948C108.574 109.805 108.603 109.752 108.617 109.692C108.622 109.659 108.585 109.582 108.577 109.586C108.532 109.599 108.473 109.616 108.452 109.659ZM91.4266 51.7873C91.3895 51.7907 91.3259 51.8306 91.3232 51.8639C91.31 51.9904 91.3179 52.1235 91.3179 52.2766C91.4716 52.1734 91.5379 52.0536 91.5008 51.8739C91.4928 51.8373 91.4504 51.784 91.4266 51.7873ZM91.6572 48.7355C91.6545 48.7588 91.6863 48.7821 91.7049 48.8087C91.7155 48.7688 91.7314 48.7355 91.734 48.6989C91.7367 48.6889 91.7128 48.669 91.7022 48.6556C91.6863 48.6823 91.6572 48.7089 91.6572 48.7355ZM90.4115 41.9263C90.4089 41.9496 90.4407 41.9796 90.4831 42.0494C90.4884 41.9363 90.4937 41.8764 90.4937 41.8198C90.4937 41.8065 90.4725 41.7899 90.4619 41.7765C90.4433 41.8231 90.4194 41.8731 90.4115 41.9263ZM101.673 47.6938C101.686 47.6672 101.71 47.6373 101.715 47.604C101.718 47.574 101.712 47.5407 101.707 47.5075C101.675 47.5374 101.646 47.5674 101.614 47.5973C101.633 47.6306 101.652 47.6606 101.673 47.6938ZM124.815 97.9275C124.829 97.9209 124.852 97.9142 124.852 97.9042C124.858 97.8676 124.852 97.831 124.852 97.7944C124.829 97.8044 124.805 97.811 124.781 97.8177C124.791 97.8543 124.805 97.8942 124.815 97.9275ZM124.855 105.699C124.847 105.735 124.868 105.782 124.879 105.832C124.98 105.855 125.086 105.878 125.194 105.905C125.197 105.555 125.16 105.416 125.067 105.419C124.935 105.429 124.882 105.555 124.855 105.699ZM100.549 55.8742L100.512 55.8709L100.53 55.9208L100.549 55.8742ZM125.905 93.4446C125.905 93.4446 125.921 93.4014 125.918 93.4014C125.891 93.3814 125.862 93.3648 125.836 93.3448C125.83 93.3648 125.825 93.3881 125.82 93.4047C125.849 93.4213 125.875 93.4313 125.905 93.4446ZM126.803 88.0632L126.761 88.0765L126.798 88.1031L126.803 88.0632ZM124.049 83.5137C124.06 83.5071 124.076 83.4971 124.079 83.4871C124.081 83.4671 124.076 83.4505 124.073 83.4305C124.057 83.4405 124.039 83.4571 124.023 83.4671C124.031 83.4838 124.039 83.4971 124.049 83.5137ZM123.456 121.407C123.493 121.444 123.53 121.477 123.586 121.527C123.62 121.47 123.649 121.427 123.678 121.384C123.641 121.347 123.599 121.274 123.57 121.284C123.527 121.294 123.493 121.364 123.456 121.407ZM125.942 89.7505C125.759 89.9003 125.759 89.9003 125.714 90.2231C126.008 90.0633 126.008 90.0633 125.942 89.7505ZM126.419 104.986C126.49 104.98 126.562 104.97 126.647 104.963C126.726 104.823 126.811 104.68 126.896 104.534C126.435 104.171 126.419 104.168 126.008 104.391C126.011 104.97 126.048 105.02 126.419 104.986ZM126.732 94.1102L126.716 94.0803L126.697 94.1169L126.732 94.1102ZM124.455 91.1982C124.439 91.308 124.548 91.4045 124.635 91.3713C124.717 91.338 124.757 91.2581 124.731 91.1649C124.709 91.095 124.648 91.0451 124.577 90.9419C124.521 91.0584 124.468 91.1216 124.455 91.1982ZM127.142 93.7375C127.164 93.8007 127.177 93.8706 127.185 93.8706C127.235 93.864 127.283 93.8407 127.33 93.8274C127.315 93.7907 127.304 93.7308 127.283 93.7242C127.24 93.7109 127.193 93.7308 127.142 93.7375ZM130.948 118.155C130.972 118.192 130.985 118.209 130.993 118.229C131.03 118.182 131.062 118.139 131.094 118.092C131.097 118.092 131.062 118.049 131.059 118.052C131.022 118.082 130.988 118.119 130.948 118.155ZM131.049 117.174C130.874 117.15 130.723 117.347 130.752 117.546C130.755 117.586 130.792 117.636 130.818 117.646C130.964 117.69 131.142 117.503 131.15 117.277C131.123 117.247 131.086 117.18 131.049 117.174ZM99.4438 48.0599C99.4411 48.0499 99.4199 48.0499 99.4067 48.0433C99.4014 48.0632 99.3987 48.0832 99.3934 48.1065C99.4093 48.1098 99.4226 48.1132 99.4385 48.1198C99.4411 48.0999 99.4491 48.0766 99.4438 48.0599ZM131.916 104.098C131.897 104.151 131.857 104.221 131.87 104.261C131.892 104.324 131.947 104.371 132.024 104.467C132.024 104.337 132.037 104.264 132.019 104.214C132.003 104.164 131.95 104.134 131.916 104.098ZM131.791 107.579H131.754L131.775 107.635L131.791 107.579ZM129.106 112.162C129.13 112.175 129.17 112.145 129.202 112.135C129.159 112.078 129.122 112.019 129.074 111.972C129.066 111.962 129.024 112.012 128.982 112.045C129.027 112.088 129.061 112.138 129.106 112.162ZM128.107 97.6047C127.977 97.7877 127.853 97.9774 127.744 98.1838C127.709 98.247 127.715 98.3702 127.741 98.4467C127.765 98.5166 127.842 98.5565 127.967 98.6763C128.004 98.4567 128.004 98.3369 128.046 98.2437C128.096 98.1272 128.181 98.034 128.25 97.9275C128.271 97.8942 128.298 97.8443 128.295 97.8077C128.295 97.7445 128.287 97.6579 128.255 97.6247C128.221 97.5881 128.126 97.5747 128.107 97.6047ZM129.591 111.393C129.618 111.383 129.639 111.336 129.66 111.306C129.62 111.29 129.583 111.263 129.541 111.26C129.533 111.256 129.517 111.326 129.506 111.363C129.536 111.376 129.567 111.406 129.591 111.393ZM129.578 107.11C129.567 107.083 129.559 107.06 129.549 107.033C129.538 107.043 129.528 107.053 129.517 107.063C129.522 107.083 129.522 107.11 129.533 107.116C129.544 107.123 129.562 107.113 129.578 107.11ZM130.211 116.475C130.238 116.515 130.264 116.555 130.309 116.621C130.347 116.555 130.381 116.511 130.389 116.465C130.394 116.442 130.341 116.378 130.328 116.382C130.286 116.402 130.248 116.442 130.211 116.475ZM103.3 123.564C103.3 123.144 103.3 123.144 103.207 122.915C103.144 123.158 103.091 123.361 103.003 123.693C103.175 123.617 103.239 123.59 103.3 123.564ZM83.7194 116.511C83.7194 116.568 83.7194 116.628 83.7194 116.694C83.7671 116.671 83.8122 116.664 83.8228 116.635C83.8361 116.608 83.8202 116.548 83.8016 116.521C83.7883 116.501 83.7486 116.511 83.7194 116.511ZM84.1859 99.5683C84.1965 99.4884 84.2097 99.4085 84.223 99.332C84.2018 99.322 84.1806 99.312 84.162 99.3053C84.1382 99.3752 84.1117 99.4484 84.0958 99.5217C84.0958 99.525 84.1541 99.5516 84.1859 99.5683ZM85.026 116.838C85.0472 116.848 85.0844 116.811 85.1135 116.798C85.0738 116.741 85.034 116.681 84.9916 116.628C84.973 116.654 84.9571 116.684 84.9227 116.734C84.9571 116.771 84.9863 116.818 85.026 116.838ZM83.3086 96.3999C83.2848 96.0971 83.359 95.9107 83.1205 95.8575C83.1788 96.0305 83.2212 96.147 83.3086 96.3999ZM81.6151 89.9202C82.9217 89.9402 84.2309 89.8403 85.5243 89.6174C85.6462 87.2212 85.7628 84.7651 85.1453 82.4687C84.9359 81.6933 84.4933 80.8246 83.7751 80.8113C83.4093 80.8047 83.0728 81.0343 82.8051 81.3172C81.79 82.3988 81.6522 84.1361 81.578 85.7102C81.5091 87.1646 81.684 88.4659 81.6151 89.9202ZM98.0842 100.736C98.1133 100.746 98.1319 100.753 98.1478 100.756C98.1451 100.743 98.1425 100.723 98.1372 100.723C98.1239 100.723 98.1133 100.73 98.0842 100.736ZM98.8528 94.8191C98.8607 94.8324 98.866 94.8557 98.874 94.8591C98.8872 94.8657 98.9031 94.8557 98.9164 94.8557C98.9084 94.8324 98.9005 94.8125 98.8872 94.7958C98.8872 94.7925 98.866 94.8125 98.8528 94.8191ZM97.737 113.995C97.7529 113.992 97.7688 113.989 97.7847 113.985C97.7635 113.972 97.7449 113.959 97.7211 113.952C97.7158 113.949 97.7025 113.969 97.6919 113.979C97.7078 113.985 97.7237 113.989 97.737 113.995ZM85.8689 123.517C85.7867 123.557 85.6913 123.59 85.7098 123.743C85.7125 123.76 85.731 123.787 85.7443 123.793C85.8556 123.82 85.906 123.73 85.9457 123.623C85.9537 123.6 85.959 123.58 85.9749 123.52C85.9033 123.517 85.8821 123.507 85.8689 123.517ZM97.7052 83.5536C97.6787 83.5503 97.6495 83.5636 97.623 83.567C97.6336 83.5936 97.6442 83.6235 97.6548 83.6502C97.6813 83.6335 97.7078 83.6169 97.7343 83.6002C97.7264 83.5836 97.7184 83.5536 97.7052 83.5536ZM108.322 102.277C108.336 102.291 108.349 102.304 108.362 102.317C108.375 102.284 108.391 102.254 108.399 102.217C108.402 102.204 108.378 102.184 108.367 102.171C108.354 102.204 108.338 102.241 108.322 102.277ZM81.7529 72.9105C81.7767 72.9405 81.8006 72.9671 81.8245 72.9971C81.8351 72.9671 81.851 72.9305 81.8589 72.8939C81.8616 72.8806 81.8324 72.844 81.8271 72.8506C81.8006 72.8639 81.7767 72.8906 81.7529 72.9105ZM90.332 93.3049C90.3426 93.2882 90.3532 93.2682 90.377 93.2316C90.3426 93.195 90.3055 93.1551 90.2684 93.1185C90.2631 93.1152 90.2419 93.1451 90.2286 93.1584C90.2631 93.2083 90.2975 93.2549 90.332 93.3049ZM92.0653 96.9258C91.9381 96.9391 91.9778 97.0689 92.0123 97.2419C92.0653 97.1687 92.0945 97.1421 92.1077 97.1055C92.1422 97.0289 92.1713 96.9158 92.0653 96.9258ZM88.5907 73.859C88.6225 73.8191 88.6464 73.7658 88.6702 73.7192C88.6411 73.7059 88.596 73.676 88.5801 73.6893C88.5483 73.7226 88.5271 73.7791 88.498 73.8291C88.5404 73.8457 88.5801 73.8723 88.5907 73.859ZM88.8823 80.8013C88.9114 80.798 88.9353 80.7547 88.9777 80.7181C88.9485 80.6682 88.9273 80.605 88.8902 80.5684C88.877 80.5517 88.8134 80.575 88.7975 80.605C88.7524 80.6716 88.8134 80.808 88.8823 80.8013ZM88.0872 86.7819C88.0978 86.7952 88.1084 86.8085 88.1163 86.8218C88.1296 86.8118 88.1402 86.7985 88.1508 86.7852C88.1349 86.7652 88.119 86.7486 88.1004 86.7319C88.0978 86.7486 88.0925 86.7652 88.0872 86.7819ZM81.9146 81.6766C81.9331 81.6733 81.9517 81.6666 81.9702 81.6633C81.9649 81.6467 81.9596 81.63 81.957 81.6134C81.9437 81.6167 81.9278 81.6134 81.9225 81.6234C81.9146 81.6367 81.9172 81.66 81.9146 81.6766ZM84.0905 74.2484C84.0746 74.2351 84.056 74.2218 84.0401 74.2085L84.0242 74.2284C84.0454 74.2351 84.0693 74.2417 84.0905 74.2484ZM98.9376 104.025C98.9349 104.021 98.919 104.018 98.9084 104.015C98.919 104.025 98.9349 104.031 98.9402 104.044C98.9376 104.038 98.9376 104.031 98.9376 104.025ZM84.0242 74.2284L84.0401 74.2085C84.0322 74.2051 84.0242 74.2018 84.0163 74.1985C84.0163 74.2118 84.0216 74.2184 84.0242 74.2284ZM85.7628 115.024L85.7549 114.98L85.739 115.02L85.7628 115.024ZM80.7113 48.3827C80.7431 48.4027 80.7908 48.4493 80.8041 48.436C80.9021 48.3395 81.0161 48.2529 81.0771 48.1232C81.1354 48.0067 81.0718 47.9102 80.9339 47.9168C80.8624 48.0666 80.7882 48.2263 80.7113 48.3827ZM147.775 101.901C147.791 101.895 147.807 101.888 147.823 101.881C147.791 101.875 147.764 101.868 147.735 101.865C147.749 101.878 147.762 101.888 147.775 101.901ZM141.001 111.692C140.99 111.689 140.974 111.696 140.964 111.702C140.966 111.716 140.969 111.729 140.972 111.746C140.985 111.739 140.998 111.736 141.011 111.732C141.009 111.716 141.009 111.692 141.001 111.692ZM146.233 107.862C146.214 107.865 146.201 107.912 146.185 107.942C146.214 107.955 146.241 107.968 146.27 107.982C146.286 107.955 146.304 107.928 146.32 107.902C146.291 107.888 146.259 107.862 146.233 107.862ZM141.87 112.747C141.923 112.697 141.974 112.644 142.019 112.601C142.005 112.548 142.005 112.511 141.997 112.508C141.971 112.498 141.928 112.481 141.91 112.498C141.867 112.538 141.83 112.588 141.804 112.644C141.793 112.664 141.809 112.714 141.82 112.747C141.825 112.754 141.857 112.757 141.87 112.747ZM152.554 107.03C152.498 106.97 152.445 106.907 152.381 106.83C152.262 106.947 152.14 107.066 152.013 107.19C152.212 107.416 152.379 107.609 152.58 107.842C152.848 107.369 152.848 107.359 152.554 107.03ZM156.147 105.146C156.171 105.133 156.198 105.113 156.222 105.096C156.195 105.08 156.171 105.06 156.142 105.053C156.134 105.053 156.124 105.086 156.11 105.099C156.124 105.116 156.139 105.149 156.147 105.146ZM153.468 103.702C153.468 103.738 153.479 103.778 153.487 103.822C153.497 103.805 153.518 103.792 153.516 103.775C153.516 103.735 153.502 103.695 153.497 103.655C153.487 103.668 153.465 103.685 153.468 103.702ZM151.941 106.085C151.952 106.071 151.949 106.048 151.952 106.031C151.933 106.035 151.915 106.038 151.894 106.045C151.899 106.061 151.904 106.075 151.907 106.095C151.92 106.091 151.939 106.095 151.941 106.085ZM152.206 103.073C152.206 103.016 152.204 102.97 152.204 102.926C152.153 102.903 152.106 102.883 152.058 102.863C152.103 102.923 152.148 102.989 152.206 103.073ZM151.918 105.402C151.915 105.409 151.947 105.436 151.957 105.432C151.984 105.426 152.005 105.402 152.029 105.386C152.002 105.359 151.978 105.332 151.955 105.302C151.939 105.339 151.925 105.369 151.918 105.402ZM98.9614 104.161C98.9641 104.158 98.9694 104.151 98.972 104.148C98.9694 104.148 98.9667 104.148 98.9641 104.148L98.9614 104.161ZM99.8731 93.1884C99.8864 93.195 99.9076 93.1784 99.9235 93.1717C99.9156 93.1418 99.9076 93.0885 99.897 93.0885C99.8679 93.0885 99.8387 93.1085 99.8016 93.1218C99.8281 93.1451 99.8493 93.1751 99.8731 93.1884ZM99.5604 123.43C99.5737 123.434 99.5869 123.437 99.6002 123.44C99.5975 123.417 99.5949 123.397 99.5896 123.374C99.5763 123.377 99.5631 123.384 99.5498 123.394C99.5472 123.397 99.5578 123.417 99.5604 123.43ZM98.9641 104.148C98.9561 104.114 98.9535 104.078 98.9429 104.048C98.9429 104.044 98.9402 104.044 98.9402 104.044C98.9482 104.081 98.9561 104.121 98.9614 104.161L98.9641 104.148ZM98.972 104.148C99.0038 104.151 99.0356 104.168 99.0648 104.161C99.0834 104.158 99.0993 104.118 99.1178 104.091C99.0913 104.084 99.0568 104.068 99.0356 104.078C99.0118 104.091 98.9932 104.121 98.972 104.148ZM99.5737 122.422C99.5604 122.395 99.5366 122.352 99.5233 122.355C99.4995 122.362 99.4809 122.399 99.457 122.422C99.4889 122.435 99.5154 122.452 99.5445 122.459C99.5525 122.462 99.5763 122.422 99.5737 122.422ZM135.372 113.26C135.387 113.223 135.401 113.183 135.417 113.147C135.403 113.13 135.39 113.117 135.374 113.1C135.361 113.14 135.345 113.173 135.337 113.213C135.334 113.223 135.358 113.243 135.372 113.26ZM136.458 115.177C136.469 115.2 136.482 115.223 136.495 115.247C136.501 115.227 136.506 115.21 136.511 115.193C136.501 115.177 136.495 115.164 136.487 115.147C136.477 115.157 136.456 115.174 136.458 115.177ZM135.435 114.182C135.44 114.168 135.446 114.152 135.451 114.135C135.438 114.125 135.425 114.119 135.411 114.109C135.419 114.135 135.427 114.158 135.435 114.182ZM136.909 113.859C136.946 113.822 136.983 113.789 137.044 113.732C136.986 113.679 136.954 113.633 136.911 113.623C136.888 113.613 136.85 113.663 136.821 113.686C136.85 113.742 136.88 113.799 136.909 113.859ZM134.645 118.292C134.616 118.302 134.584 118.322 134.555 118.342C134.569 118.358 134.579 118.375 134.59 118.392C134.622 118.375 134.653 118.355 134.685 118.335C134.672 118.319 134.656 118.289 134.645 118.292ZM134.783 116.222C134.704 116.282 134.619 116.348 134.696 116.515C134.754 116.465 134.815 116.425 134.863 116.368C134.884 116.345 134.889 116.275 134.876 116.248C134.86 116.222 134.804 116.209 134.783 116.222ZM83.9633 74.0654C83.958 74.102 83.9368 74.1552 83.9474 74.1685C83.9659 74.1852 83.9898 74.1918 84.0163 74.1985C84.0083 74.1685 84.003 74.1386 83.9924 74.1086C83.9871 74.0953 83.9712 74.0787 83.9633 74.0654ZM101.344 81.5502C101.347 81.5169 101.339 81.4836 101.333 81.447C101.312 81.4603 101.291 81.4703 101.27 81.4836C101.283 81.5202 101.294 81.5535 101.307 81.5868C101.32 81.5768 101.344 81.5635 101.344 81.5502ZM100.21 97.6979L100.183 97.6879L100.191 97.7312L100.21 97.6979ZM102.863 90.1765C102.969 90.1698 103.08 90.1632 103.162 90.0966C103.228 90.0434 103.266 89.9602 103.3 89.8803C103.48 89.441 103.549 88.9584 103.597 88.4792C103.774 86.7419 103.719 84.9747 103.43 83.2575C103.35 82.7749 103.181 82.2124 102.743 82.0893C102.232 81.9429 101.803 82.5053 101.553 83.0112C100.504 85.1378 99.9898 87.5706 100.075 89.9768L100.072 90.2131C101.002 90.2364 101.932 90.2231 102.863 90.1765ZM100.87 103.918C100.915 103.888 100.944 103.868 100.973 103.845C100.936 103.812 100.901 103.765 100.862 103.748C100.843 103.742 100.806 103.788 100.78 103.812C100.809 103.848 100.841 103.885 100.87 103.918ZM102.693 81.1242C102.682 81.1208 102.667 81.1541 102.653 81.1708C102.682 81.1874 102.712 81.204 102.741 81.224C102.757 81.2074 102.767 81.1907 102.783 81.1774C102.754 81.1574 102.722 81.1375 102.693 81.1242ZM104.161 86.3559C104.132 86.3659 104.106 86.3892 104.077 86.4058C104.09 86.4224 104.1 86.4391 104.111 86.4557C104.14 86.4357 104.167 86.4158 104.196 86.3991C104.185 86.3825 104.167 86.3525 104.161 86.3559ZM102.974 80.4486C103.006 80.4885 103.035 80.5351 103.069 80.5684C103.072 80.5717 103.109 80.5218 103.146 80.4785C103.096 80.4552 103.059 80.4286 103.016 80.4186C103.006 80.4153 102.99 80.4386 102.974 80.4486ZM109.107 92.1267L109.136 92.1134L109.112 92.0901L109.107 92.1267ZM102.672 93.022C102.677 93.0053 102.688 92.9854 102.688 92.9654C102.688 92.9587 102.667 92.9521 102.653 92.9421C102.648 92.9621 102.637 92.982 102.637 92.9987C102.637 93.0087 102.661 93.0153 102.672 93.022ZM103.149 79.8662C103.149 79.8296 103.141 79.7929 103.138 79.7563C103.117 79.7696 103.096 79.7863 103.075 79.7996C103.088 79.8362 103.099 79.8728 103.112 79.9094C103.125 79.8961 103.146 79.8828 103.149 79.8662ZM106.345 117.44C106.358 117.427 106.388 117.413 106.388 117.4C106.382 117.363 106.369 117.323 106.358 117.284C106.343 117.297 106.313 117.31 106.313 117.317C106.321 117.36 106.335 117.397 106.345 117.44ZM104.914 82.7616C104.925 82.7483 104.919 82.7216 104.922 82.7017C104.906 82.695 104.893 82.685 104.877 82.6784C104.872 82.7083 104.869 82.7416 104.866 82.7716C104.882 82.7682 104.903 82.7716 104.914 82.7616ZM105.325 120.146C105.346 120.119 105.383 120.099 105.388 120.066C105.394 120.029 105.373 119.986 105.359 119.946C105.328 119.986 105.29 120.022 105.256 120.062C105.28 120.089 105.301 120.119 105.325 120.146ZM105.818 84.572C105.818 84.4955 105.818 84.4156 105.818 84.3391C105.802 84.3357 105.786 84.3357 105.77 84.3357C105.767 84.4156 105.765 84.4922 105.762 84.5687C105.781 84.5687 105.799 84.572 105.818 84.572ZM108.86 92.9621C108.852 92.972 108.876 93.0186 108.884 93.0486C108.916 93.0386 108.945 93.0253 108.974 93.012C108.964 92.9787 108.953 92.9388 108.943 92.9022C108.913 92.9221 108.879 92.9354 108.86 92.9621ZM108.956 90.07C109.08 89.9701 109.11 89.7838 109.128 89.6174C109.359 87.4741 109.255 85.2909 108.829 83.1876C108.807 83.0811 108.781 82.9712 108.707 82.9047C108.617 82.8281 108.492 82.8381 108.383 82.8714C107.877 83.0245 107.578 83.5769 107.358 84.0928C106.581 85.9033 106.078 87.8435 105.868 89.8204L105.926 89.7505C106.79 89.877 107.652 90.0034 108.513 90.1299C108.664 90.1532 108.834 90.1698 108.956 90.07ZM103.454 122.745C103.512 122.755 103.573 122.761 103.631 122.768C103.634 122.735 103.637 122.672 103.634 122.668C103.576 122.658 103.517 122.658 103.459 122.655C103.456 122.685 103.456 122.715 103.454 122.745ZM95.1503 41.0976C95.1397 41.1675 95.1158 41.2208 95.1291 41.2507C95.1529 41.304 95.198 41.3406 95.2351 41.3805C95.2404 41.3838 95.2775 41.3572 95.2775 41.3472C95.2775 41.304 95.2775 41.254 95.2589 41.2208C95.2324 41.1775 95.19 41.1442 95.1503 41.0976ZM104.172 94.7892C104.002 94.3299 103.7 93.834 103.244 93.8074C102.802 93.7808 102.455 94.2068 102.224 94.6194C101.01 96.7993 101.021 99.525 101.384 102.038L101.538 102.094C102.288 102.091 103.038 102.084 103.788 102.081C103.833 102.081 103.883 102.078 103.925 102.054C103.997 102.011 104.018 101.918 104.037 101.831C104.517 99.505 104.988 97.0056 104.172 94.7892ZM102.489 112.268C102.513 112.478 102.505 112.591 102.539 112.674C102.566 112.724 102.651 112.734 102.712 112.764C102.722 112.684 102.762 112.581 102.738 112.528C102.701 112.448 102.622 112.398 102.489 112.268ZM101.675 109.739L101.657 109.679L101.636 109.735L101.675 109.739ZM103.35 119.843C103.385 119.826 103.417 119.809 103.448 119.793C103.438 119.76 103.427 119.7 103.409 119.696C103.377 119.686 103.342 119.713 103.308 119.726C103.321 119.763 103.337 119.803 103.35 119.843ZM91.9672 119.061C91.9672 119.071 92.0229 119.091 92.0732 119.117C92.0812 119.061 92.0998 119.007 92.0918 118.964C92.0865 118.941 92.0388 118.928 92.0123 118.911C91.9937 118.961 91.9778 119.011 91.9672 119.061ZM90.1756 108.467C90.2207 108.527 90.2763 108.577 90.3267 108.634C90.3452 108.604 90.3664 108.574 90.385 108.541C90.3823 108.448 90.2816 108.328 90.218 108.361C90.1942 108.374 90.1677 108.454 90.1756 108.467ZM89.998 110.624C90.0033 110.617 90.0033 110.597 90.0033 110.581C89.9901 110.574 89.9768 110.571 89.9636 110.564C89.9609 110.584 89.9583 110.607 89.9556 110.631C89.9715 110.631 89.9848 110.631 89.998 110.624ZM91.7049 105.266L91.6704 105.253L91.6784 105.306L91.7049 105.266ZM90.5414 104.114C90.5652 104.164 90.5864 104.211 90.6235 104.287C90.6686 104.221 90.703 104.184 90.7216 104.138C90.7269 104.118 90.6845 104.048 90.6712 104.051C90.6262 104.058 90.5838 104.091 90.5414 104.114ZM90.9681 111.662C90.9734 111.716 90.9919 111.769 91.0237 111.909C91.0396 111.762 91.0502 111.702 91.0529 111.642C91.0529 111.629 91.0343 111.612 91.0237 111.596C91.0052 111.619 90.9681 111.642 90.9681 111.662ZM91.3126 89.614C91.3153 89.6473 91.3497 89.6806 91.3762 89.7305C91.4107 89.6739 91.4531 89.6307 91.4769 89.5741C91.4875 89.5508 91.469 89.4842 91.4478 89.4643C91.3895 89.4177 91.31 89.5042 91.3126 89.614ZM89.9026 105.406C89.892 105.422 89.8735 105.439 89.8735 105.459C89.8708 105.476 89.8841 105.499 89.892 105.519C89.8947 105.479 89.9 105.442 89.9026 105.406ZM90.4327 86.083C90.4725 86.1429 90.5096 86.1995 90.5626 86.2827C90.6156 86.2028 90.6474 86.1628 90.6765 86.1162C90.6209 86.0796 90.5679 86.0364 90.5096 86.0098C90.491 86.0031 90.4592 86.0563 90.4327 86.083ZM91.5379 72.8872C91.5273 72.8706 91.5114 72.844 91.5061 72.844C91.4875 72.8573 91.4716 72.8806 91.4531 72.8972C91.469 72.9005 91.4796 72.9105 91.4955 72.9138C91.5087 72.9072 91.522 72.8972 91.5379 72.8872ZM87.5386 122.349C87.5491 122.332 87.5624 122.316 87.5651 122.296C87.5651 122.279 87.5491 122.262 87.5412 122.246C87.5306 122.262 87.5147 122.279 87.5147 122.296C87.5147 122.312 87.5306 122.332 87.5386 122.349ZM90.5997 76.1188L90.6421 76.1354V76.0955L90.5997 76.1188ZM95.8261 98.1106C95.8155 98.1239 95.8102 98.1372 95.7996 98.1505C95.8076 98.1638 95.8129 98.1805 95.8182 98.1971C95.8208 98.1671 95.8235 98.1372 95.8261 98.1106ZM95.9825 117.017C95.9666 117.027 95.948 117.041 95.9268 117.051C95.9401 117.057 95.9533 117.064 95.9666 117.071C95.9719 117.054 95.9772 117.034 95.9825 117.017ZM95.3491 118.129C95.3543 118.165 95.3703 118.202 95.3809 118.235C95.3941 118.222 95.4206 118.205 95.4206 118.199C95.4127 118.159 95.3968 118.122 95.3835 118.086C95.3703 118.099 95.3464 118.119 95.3491 118.129ZM96.1362 116.378C96.1203 116.372 96.1017 116.362 96.0858 116.355C96.0911 116.365 96.0938 116.378 96.0964 116.392C96.1123 116.385 96.1229 116.382 96.1362 116.378ZM97.1354 88.2462C97.1486 88.2728 97.1645 88.2961 97.1804 88.3228C97.1857 88.3028 97.191 88.2861 97.1963 88.2662C97.1884 88.2495 97.1804 88.2329 97.1725 88.2163C97.1619 88.2262 97.1486 88.2362 97.1354 88.2462ZM97.1831 81.1674C97.1698 81.2007 97.1566 81.234 97.1433 81.2673C97.1539 81.2839 97.1645 81.2972 97.1725 81.3139C97.1884 81.2806 97.2043 81.2473 97.2122 81.214C97.2149 81.2007 97.1937 81.1807 97.1831 81.1674ZM92.2058 102.963C92.3303 100.214 91.9964 97.4416 91.2304 94.8291C91.1032 94.3998 90.9575 93.9605 90.6845 93.6277C90.4089 93.2982 89.9715 93.0985 89.5926 93.2583C89.187 93.428 88.983 93.9239 88.8399 94.3831C87.9255 97.2586 87.361 100.493 87.7718 103.512C89.187 103.399 90.6023 103.286 92.0149 103.173C92.0706 103.169 92.1316 103.159 92.1713 103.113C92.2005 103.073 92.2031 103.016 92.2058 102.963ZM92.2429 86.296C92.2694 86.3392 92.2985 86.3792 92.3277 86.4224C92.3515 86.3958 92.3727 86.3692 92.3966 86.3426C92.3754 86.3126 92.3595 86.2594 92.3356 86.2527C92.3065 86.246 92.272 86.2827 92.2429 86.296ZM94.3207 103.262C94.3446 103.302 94.3684 103.342 94.3923 103.386C94.4135 103.356 94.4347 103.326 94.4532 103.299C94.4373 103.269 94.4214 103.219 94.4029 103.216C94.379 103.212 94.3499 103.246 94.3207 103.262ZM93.4594 97.5881C93.4753 97.5515 93.5097 97.4949 93.5044 97.4816C93.47 97.4316 93.4249 97.395 93.3825 97.3518C93.3666 97.3917 93.3534 97.4316 93.3295 97.4882C93.3693 97.5215 93.4143 97.5548 93.4594 97.5881ZM93.796 93.2383C93.8119 93.2316 93.8331 93.225 93.8516 93.2216C93.8463 93.2017 93.841 93.185 93.8357 93.1684C93.8251 93.1717 93.8092 93.1717 93.8039 93.1817C93.796 93.195 93.7986 93.2183 93.796 93.2383ZM104.273 119.154C104.294 119.18 104.312 119.207 104.331 119.234C104.35 119.197 104.368 119.167 104.376 119.131C104.379 119.121 104.352 119.087 104.35 119.087C104.323 119.107 104.299 119.131 104.273 119.154ZM35.2132 84.5587C35.0039 84.5754 35.0039 84.5754 34.9005 84.7784C35.0198 84.6952 35.0887 84.6452 35.2132 84.5587ZM32.1574 82.7283C33.1884 82.1858 34.2167 81.6367 35.2503 81.0909C35.3458 81.041 35.4491 80.9844 35.5048 80.8812C35.5657 80.7581 35.5498 80.6083 35.5313 80.4685C35.3802 79.4169 35.2291 78.3586 35.0781 77.3036C34.9721 76.5381 34.8581 75.7593 34.556 75.0638C34.4155 74.7376 34.1452 74.3915 33.8324 74.4814C33.6867 74.5213 33.5753 74.6544 33.4826 74.7875C33.0585 75.4099 32.8916 76.2053 32.767 76.9774C32.4649 78.8711 32.0938 80.808 32.1574 82.7283ZM34.1107 69.3861C34.1505 69.3495 34.1982 69.3295 34.2008 69.3029C34.2061 69.2463 34.1876 69.1831 34.1796 69.1232C34.1425 69.1531 34.0842 69.1731 34.0789 69.2097C34.0683 69.2596 34.0975 69.3195 34.1107 69.3861ZM33.4773 72.002C33.5488 71.8688 33.6178 71.7424 33.684 71.6192C33.4614 71.6592 33.4587 71.6558 33.4243 71.9121C33.4216 71.9354 33.4534 71.962 33.4773 72.002ZM33.5515 88.0698C33.5064 87.8468 33.4587 87.6205 33.3448 87.4342C33.2308 87.2478 33.04 87.1047 32.8386 87.1213C32.6822 87.138 32.5444 87.2478 32.4331 87.3743C31.842 88.0399 31.8023 89.0816 31.7996 90.0167C31.7943 91.2581 31.4922 92.8056 31.4869 94.0404C32.3562 93.7575 33.2202 93.4713 34.0869 93.185C34.0683 91.4644 33.8907 89.7472 33.5515 88.0698ZM31.9905 75.4665L32.0329 75.4698L32.0143 75.4132L31.9905 75.4665ZM30.228 83.0078C30.2333 82.9912 30.2412 82.9746 30.2412 82.9613C30.2412 82.9513 30.22 82.9479 30.2094 82.9413C30.2041 82.9579 30.1962 82.9746 30.1962 82.9912C30.1962 82.9979 30.2174 83.0012 30.228 83.0078ZM56.4211 59.179C56.3178 59.3054 56.2489 59.392 56.1402 59.5217C56.3416 59.5151 56.4158 59.4352 56.4211 59.179ZM33.2467 109.007L33.2361 108.957L33.2176 108.997L33.2467 109.007ZM40.7763 57.6514C40.7551 57.6514 40.7339 57.658 40.7127 57.658C40.7153 57.6747 40.7206 57.6946 40.7233 57.7113C40.7365 57.708 40.7551 57.7113 40.7604 57.7046C40.771 57.6913 40.771 57.668 40.7763 57.6514ZM41.2083 56.5531C41.2639 56.42 41.1844 56.3634 41.1129 56.3002C41.0996 56.2869 41.0837 56.2802 41.0678 56.2702C41.0493 56.3068 41.0201 56.3401 41.0148 56.3801C41.0042 56.5132 41.0705 56.5764 41.1659 56.5931C41.1791 56.5964 41.2003 56.5731 41.2083 56.5531ZM36.4986 91.9703C36.4032 91.9636 36.3052 91.927 36.223 91.957C35.9871 92.0502 35.7221 92.5361 35.7089 92.8522C35.7036 93.0619 35.9129 93.2849 36.0879 93.2516C36.1965 93.1684 36.3052 93.0852 36.4138 93.002C36.2575 92.6559 36.6842 92.3996 36.4986 91.9703ZM37.3335 111.469C37.2964 111.499 37.2619 111.533 37.2248 111.566C37.2487 111.589 37.2699 111.612 37.2937 111.636C37.3229 111.616 37.3653 111.599 37.3733 111.573C37.3786 111.546 37.3468 111.503 37.3335 111.469ZM35.8891 94.1102C35.9076 94.1369 35.9288 94.1635 35.9474 94.1868C35.9712 94.1635 35.9924 94.1402 36.0163 94.1169C36.003 94.1003 35.9871 94.0736 35.9765 94.077C35.9474 94.0803 35.9182 94.0969 35.8891 94.1102ZM41.2268 110.161C41.1102 110.271 41.1208 110.364 41.2268 110.501C41.2268 110.368 41.2268 110.278 41.2268 110.161ZM37.14 92.6592C37.1692 92.6526 37.1983 92.6459 37.2275 92.6392C37.2301 92.6592 37.2248 92.6892 37.2328 92.6925C37.2593 92.7058 37.307 92.7258 37.3149 92.7125C37.3335 92.6792 37.3468 92.6426 37.36 92.606C38.0411 92.4429 38.7223 92.2798 39.4034 92.1201C39.4882 90.1665 39.361 88.1996 38.9529 86.2993C38.8839 85.9865 38.8044 85.6636 38.6269 85.404C38.4493 85.1478 38.1498 84.9714 37.8689 85.0513C37.4687 85.1644 37.307 85.6936 37.2248 86.1462C36.8352 88.2995 36.7981 90.5293 37.1109 92.6991L37.14 92.6592ZM40.7339 78.0823C40.7948 77.9625 40.7789 77.8094 40.7577 77.673C40.6067 76.618 40.4582 75.563 40.3098 74.508C40.1985 73.7392 40.0872 72.9638 39.785 72.2649C39.6446 71.9387 39.3742 71.5926 39.0615 71.6825C38.9157 71.7257 38.8044 71.8555 38.7117 71.9886C38.285 72.611 38.1206 73.4064 37.9961 74.1818C37.6939 76.0722 37.3229 78.0091 37.3865 79.9327C38.4175 79.3869 39.4485 78.8411 40.4768 78.2953C40.5748 78.2421 40.6782 78.1855 40.7339 78.0823ZM38.1763 72.3447C38.2585 72.4379 38.3274 72.4213 38.3857 72.3115C38.3062 72.2216 38.2346 72.2283 38.1763 72.3447ZM35.3007 97.5814C35.3643 97.7312 35.4147 97.8476 35.4836 98.0141C35.6214 97.9109 35.7407 97.8244 35.8864 97.7212C35.7884 97.5481 35.7195 97.4217 35.6293 97.2619C35.5074 97.3784 35.412 97.4716 35.3007 97.5814ZM38.7064 67.2695C39.0748 66.8701 39.1543 66.3376 39.1066 65.7519C39.0456 65.0596 38.9502 64.3607 38.8362 63.6785C38.7276 62.9962 38.5765 62.324 38.3645 61.6817C38.1922 61.1625 37.8901 60.6866 37.3892 60.9528C36.9784 61.1725 36.6868 61.7649 36.4986 62.2541C36.4377 62.4138 36.3873 62.5802 36.3396 62.7466C36.329 62.7267 36.3158 62.7067 36.2999 62.6901C36.1939 62.7799 36.0693 62.8431 36.1886 63.0096C36.2045 63.0328 36.2336 63.0462 36.2628 63.0561C36.1965 63.349 36.1462 63.6485 36.1038 63.9447C35.9023 65.469 35.6956 67.0465 35.6771 68.594C35.632 68.6706 35.6134 68.7571 35.624 68.8669C35.632 68.9834 35.7301 69.0966 35.8202 69.1165C35.8467 69.1265 35.8732 69.1232 35.897 69.1232C36.011 69.1565 36.1382 69.1298 36.2177 69.0433C36.2866 69.0001 36.3555 68.9535 36.4297 68.9002C36.7107 68.7072 36.989 68.5175 37.2672 68.3245C37.739 68.0016 38.2956 67.7188 38.7064 67.2695ZM38.2664 59.6515C38.2638 59.6682 38.2585 59.6848 38.2585 59.6981C38.2585 59.7048 38.277 59.7081 38.285 59.7148C38.2903 59.6981 38.2956 59.6815 38.2982 59.6649C38.2876 59.6615 38.277 59.6549 38.2664 59.6515ZM48.7166 101.442C48.7219 101.432 48.6981 101.389 48.6954 101.389C48.6689 101.402 48.6424 101.419 48.6159 101.432C48.6292 101.455 48.6477 101.482 48.6636 101.509C48.6795 101.485 48.7034 101.465 48.7166 101.442ZM48.335 95.8375C48.3482 95.8442 48.3641 95.8475 48.38 95.8508C48.3774 95.8242 48.3747 95.7976 48.3721 95.7709C48.3588 95.7743 48.3376 95.7743 48.3297 95.7876C48.3244 95.7976 48.3323 95.8209 48.335 95.8375ZM49.8006 65.3392C49.7794 65.3026 49.7582 65.2493 49.7476 65.256C49.7211 65.2626 49.6814 65.2859 49.6734 65.3159C49.6628 65.3492 49.6814 65.3958 49.6867 65.4357C49.7238 65.4058 49.7609 65.3758 49.8006 65.3392ZM53.2301 73.5162C53.2911 73.4297 53.2964 73.3132 53.2964 73.2034C53.3282 70.9037 53.3335 68.4942 52.3847 66.4541C52.1037 65.8584 51.5949 65.236 51.0118 65.3924C50.487 65.5355 50.2591 66.2111 50.1293 66.7969C49.5647 69.3595 49.3448 72.0119 49.4693 74.6444C50.6434 74.3116 51.8175 73.9788 52.989 73.646C53.0791 73.6227 53.1718 73.5928 53.2301 73.5162ZM48.7617 92.9554C48.7325 92.9621 48.7034 92.9787 48.6742 92.9887C48.6928 93.0153 48.7113 93.0386 48.7299 93.0652C48.7537 93.0419 48.7776 93.0186 48.8014 92.9987C48.7882 92.9854 48.7723 92.9554 48.7617 92.9554ZM49.472 74.6611C49.472 74.6544 49.472 74.6511 49.4693 74.6444C49.4057 74.6611 49.3421 74.681 49.2785 74.701L49.472 74.6611ZM56.2144 51.6043C56.2117 51.5877 56.1879 51.581 56.1746 51.5677C56.1667 51.5877 56.1534 51.6043 56.1508 51.6243C56.1402 51.7274 56.1031 51.8406 56.2542 51.9304C56.2409 51.804 56.2276 51.7041 56.2144 51.6043ZM49.7211 48.1564C49.7132 48.1398 49.7052 48.1232 49.6999 48.1098C49.6893 48.1198 49.6761 48.1298 49.6655 48.1365C49.6787 48.1631 49.692 48.1864 49.7026 48.2097C49.7105 48.193 49.7158 48.1731 49.7211 48.1564ZM56.1561 55.0389C56.1614 55.0721 56.1905 55.1021 56.2091 55.132C56.2197 55.0954 56.2356 55.0555 56.2409 55.0122C56.2435 55.0022 56.2197 54.9823 56.2091 54.9656C56.1905 54.9889 56.1534 55.0189 56.1561 55.0389ZM56.437 60.5301C56.4132 60.5468 56.3893 60.5901 56.3867 60.6233C56.384 60.6533 56.4158 60.7198 56.4211 60.7198C56.4662 60.6999 56.5086 60.6733 56.5669 60.64C56.4821 60.5668 56.4503 60.5235 56.437 60.5301ZM56.5404 81.7931L56.5033 81.7831L56.5139 81.8464L56.5404 81.7931ZM47.7652 61.2124C47.7599 61.2157 47.7758 61.249 47.7811 61.2756C47.8076 61.2557 47.8341 61.2424 47.8553 61.2191C47.8579 61.2157 47.8473 61.1858 47.8394 61.1658C47.8129 61.1824 47.7864 61.1924 47.7652 61.2124ZM47.8738 115.38C47.9003 115.4 47.9268 115.436 47.9533 115.436C47.9825 115.436 48.0117 115.403 48.0382 115.383C48.0117 115.363 47.9851 115.327 47.9586 115.327C47.9295 115.323 47.903 115.36 47.8738 115.38ZM40.6119 105.376C40.6888 105.306 40.6941 105.189 40.6915 105.086C40.6385 102.989 40.5536 100.833 39.7135 98.9426C39.5995 98.6896 39.4723 98.44 39.2709 98.2537C39.0721 98.0706 38.7859 97.9641 38.5288 98.044C38.1392 98.1638 37.9616 98.6264 37.8477 99.0291C37.3176 100.939 37.042 102.923 37.0314 104.903L36.9678 105.099C38.1021 105.259 39.2417 105.362 40.384 105.419C40.4609 105.426 40.5483 105.426 40.6119 105.376ZM41.5926 93.1551C41.6005 93.195 41.6164 93.2316 41.627 93.2682C41.6403 93.2549 41.6668 93.2383 41.6641 93.2283C41.6562 93.1884 41.6429 93.1551 41.6297 93.1152C41.6164 93.1318 41.5926 93.1451 41.5926 93.1551ZM48.1362 92.4262C48.1044 92.4096 48.0673 92.373 48.0382 92.3797C48.0196 92.383 48.009 92.4462 47.9931 92.4862C48.0223 92.5028 48.0594 92.5394 48.0832 92.5294C48.1071 92.5194 48.1177 92.4629 48.1362 92.4262ZM40.0872 120.375C40.0898 120.359 40.0792 120.335 40.0766 120.315C40.0527 120.332 40.013 120.352 40.013 120.365C40.0183 120.399 40.0395 120.429 40.0554 120.465C40.066 120.432 40.0819 120.405 40.0872 120.375ZM48.5629 73.7891C48.5974 73.7891 48.6292 73.7259 48.6636 73.6893C48.6265 73.646 48.5868 73.5661 48.5576 73.5728C48.4967 73.5861 48.441 73.646 48.3297 73.7226C48.4437 73.7558 48.5046 73.7925 48.5629 73.7891ZM48.547 65.7352C48.5656 65.7352 48.5841 65.7319 48.6027 65.7286C48.6 65.7119 48.5974 65.6953 48.5921 65.6753C48.5788 65.6787 48.5603 65.6753 48.5576 65.682C48.5497 65.6953 48.5497 65.7186 48.547 65.7352ZM37.7284 114.488C37.6409 114.395 37.5959 114.315 37.5376 114.292C37.4687 114.262 37.3918 114.421 37.4289 114.541C37.4395 114.581 37.4899 114.628 37.5217 114.641C37.5323 114.641 37.5429 114.638 37.5508 114.638C37.6038 114.618 37.6489 114.558 37.7284 114.488ZM48.5523 47.9168C48.5232 47.9268 48.4967 47.9434 48.4675 47.9601C48.4967 47.9734 48.5232 47.99 48.5523 47.9967C48.5603 48 48.5815 47.9734 48.5815 47.9601C48.5815 47.9434 48.5603 47.9168 48.5523 47.9168ZM47.7652 116.285C47.7784 116.325 47.7864 116.385 47.8076 116.395C47.8341 116.408 47.8765 116.382 47.9083 116.372C47.8897 116.335 47.8765 116.285 47.85 116.262C47.8314 116.248 47.7943 116.275 47.7652 116.285ZM33.2732 101.432C33.2441 100.53 33.2096 99.5982 32.8571 98.7828C32.7988 98.6431 32.7193 98.4966 32.5947 98.4301C32.441 98.3502 32.2528 98.4034 32.115 98.5133C31.797 98.7629 31.683 99.2255 31.6035 99.6548C31.3199 101.216 31.1689 102.81 31.1583 104.404L31.4842 104.664C32.115 104.74 32.7484 104.82 33.3819 104.896C33.3448 103.742 33.3077 102.587 33.2732 101.432ZM11.4611 115.017C11.4584 115.064 11.4929 115.117 11.5114 115.167C11.5565 115.144 11.6095 115.12 11.6095 115.114C11.6015 115.057 11.5803 115 11.5644 114.947C11.5273 114.971 11.4611 114.99 11.4611 115.017ZM14.1511 103.362C14.1485 103.379 14.1909 103.409 14.2094 103.432C14.2227 103.396 14.2386 103.359 14.2465 103.322C14.2492 103.309 14.2227 103.292 14.2094 103.276C14.1882 103.306 14.1617 103.329 14.1511 103.362ZM14.8508 116.179C14.8694 116.209 14.8932 116.232 14.9171 116.248C14.9197 116.255 14.9356 116.229 14.9436 116.222C14.9197 116.189 14.8985 116.159 14.8747 116.129C14.8667 116.149 14.8482 116.175 14.8508 116.179ZM10.2446 111.483C10.2313 111.566 10.234 111.652 10.2287 111.736C10.2499 111.746 10.2684 111.752 10.2896 111.762C10.3241 111.676 10.3612 111.596 10.385 111.506C10.3903 111.489 10.3479 111.433 10.3214 111.426C10.2976 111.423 10.2499 111.456 10.2446 111.483ZM14.9303 107.769C14.986 107.898 15.031 108.008 15.1026 108.168C15.1185 107.815 15.1185 107.815 14.9303 107.769ZM45.6688 90.7888C45.7165 90.699 45.7138 90.5892 45.7112 90.486C45.6184 88.5158 45.5203 86.5256 45.0247 84.6353C44.9134 84.2126 44.7226 83.73 44.3357 83.6435C44.1634 83.6069 43.9858 83.6601 43.8347 83.7567C43.3524 84.0662 43.1748 84.7351 43.0582 85.3441C42.6686 87.3976 42.2684 89.6041 42.3559 91.7041C43.4054 91.6375 44.4443 91.3912 45.4276 90.9686C45.5203 90.9319 45.6184 90.882 45.6688 90.7888ZM46.7978 111.443C46.8031 111.426 46.8058 111.409 46.8111 111.393C46.8031 111.376 46.7952 111.363 46.7872 111.346C46.7793 111.356 46.758 111.37 46.758 111.373C46.7713 111.396 46.7845 111.419 46.7978 111.443ZM47.4524 118.239C47.4683 118.229 47.4895 118.225 47.4975 118.212C47.5028 118.195 47.4922 118.169 47.4895 118.149C47.4683 118.162 47.4471 118.172 47.4259 118.185C47.4365 118.202 47.4445 118.222 47.4524 118.239ZM8.5245 116.355C8.51655 116.335 8.50065 116.298 8.49535 116.302C8.46355 116.315 8.43439 116.335 8.40524 116.355C8.41584 116.375 8.42909 116.392 8.43969 116.408C8.46885 116.392 8.49535 116.375 8.5245 116.355ZM47.259 99.5283C47.1476 98.703 46.9913 97.8476 46.5195 97.1754C46.3552 96.9391 46.122 96.7128 45.841 96.7061C45.3772 96.6895 45.0989 97.222 44.9558 97.6779C44.1581 100.221 44.1183 102.94 44.0865 105.612L44.121 105.755C45.0804 105.988 46.0875 106.015 47.0575 105.835C47.19 105.808 47.3279 105.775 47.4153 105.672C47.5054 105.565 47.5187 105.412 47.524 105.266C47.6035 103.352 47.516 101.425 47.259 99.5283ZM3.88379 113.722C3.9368 113.779 3.9739 113.816 4.01365 113.859C4.02691 113.826 4.06136 113.779 4.05341 113.762C4.03221 113.719 3.99775 113.679 3.96065 113.653C3.9527 113.646 3.91824 113.689 3.88379 113.722ZM27.4558 111.263C27.4637 111.243 27.3868 111.14 27.3709 111.15C27.3179 111.18 27.2729 111.24 27.204 111.306C27.2702 111.37 27.3259 111.443 27.3365 111.433C27.3868 111.39 27.4292 111.33 27.4558 111.263ZM43.7711 115.117C43.787 115.124 43.8003 115.134 43.8162 115.14C43.8294 115.13 43.8427 115.117 43.8586 115.107C43.8453 115.094 43.8268 115.064 43.8215 115.067C43.8029 115.077 43.787 115.1 43.7711 115.117ZM4.04016 115.28C4.04016 115.24 4.02956 115.2 4.02426 115.16C4.00305 115.18 3.98185 115.203 3.958 115.223C3.9739 115.257 3.9898 115.29 4.0057 115.327C4.0163 115.31 4.04016 115.297 4.04016 115.28ZM27.3206 109.765C27.31 109.749 27.2994 109.722 27.2888 109.722C27.2252 109.729 27.1589 109.739 27.0927 109.749C27.1059 109.792 27.1059 109.845 27.1271 109.869C27.196 109.952 27.2543 109.899 27.302 109.825C27.3126 109.809 27.3126 109.785 27.3206 109.765ZM22.5288 100.204C22.5527 100.217 22.5898 100.191 22.6189 100.184C22.6004 100.151 22.5871 100.104 22.5606 100.091C22.5421 100.077 22.5049 100.101 22.4758 100.107C22.4944 100.141 22.5049 100.191 22.5288 100.204ZM20.2575 94.0503L20.2257 94.0437L20.2389 94.1003L20.2575 94.0503ZM18.1823 98.9426C18.2061 98.9393 18.23 98.9359 18.2538 98.9326C18.2485 98.9126 18.2432 98.8927 18.2379 98.8727C18.2247 98.876 18.2061 98.8727 18.1982 98.8827C18.1876 98.896 18.1876 98.9193 18.1823 98.9426ZM22.7382 110.957C22.7647 110.94 22.7859 110.917 22.815 110.89C22.7885 110.874 22.762 110.84 22.7408 110.847C22.7223 110.85 22.7117 110.9 22.7011 110.93C22.6984 110.934 22.7302 110.96 22.7382 110.957ZM24.3443 87.6538C24.3151 87.6438 24.2303 87.757 24.2197 87.8269C24.1879 87.9966 24.2224 88.1497 24.3655 88.2362C24.49 88.143 24.543 87.9933 24.5033 87.8269C24.4847 87.7537 24.4079 87.6738 24.3443 87.6538ZM23.7029 103.149C23.732 103.133 23.7851 103.123 23.7904 103.103C23.7957 103.066 23.7718 103.019 23.7612 102.976C23.732 102.989 23.6817 102.999 23.679 103.016C23.6737 103.059 23.6923 103.103 23.7029 103.149ZM42.0776 94.2034C42.0882 94.1934 42.1041 94.1835 42.1067 94.1735C42.112 94.1535 42.1041 94.1369 42.1014 94.1169C42.0855 94.1302 42.0696 94.1435 42.0511 94.1568C42.0617 94.1735 42.0696 94.1868 42.0776 94.2034ZM46.8906 88.3228C46.9144 88.2762 46.9277 88.1663 46.9038 88.143C46.8455 88.0798 46.766 88.0499 46.6944 88.0066C46.6759 88.0365 46.66 88.0698 46.6414 88.0998C46.6812 88.173 46.713 88.2595 46.7633 88.3161C46.7899 88.3461 46.88 88.3461 46.8906 88.3228ZM46.827 77.3734C46.8217 77.3934 46.8111 77.4067 46.8031 77.4267C46.819 77.4333 46.8429 77.4533 46.8455 77.45C46.8561 77.4267 46.8667 77.3967 46.8773 77.3734C46.8588 77.3734 46.8455 77.3734 46.827 77.3734ZM43.2967 114.518C43.3073 114.531 43.3179 114.545 43.3259 114.558C43.3418 114.551 43.3577 114.545 43.3736 114.535C43.3603 114.525 43.3497 114.501 43.3365 114.498C43.3259 114.495 43.31 114.511 43.2967 114.518ZM46.0239 90.05C46.0292 90.0334 46.0345 90.0134 46.0398 89.9934C46.0266 89.9801 46.0133 89.9635 46.0001 89.9502C45.9948 89.9701 45.9842 89.9934 45.9868 90.0134C45.9895 90.03 46.0107 90.04 46.0239 90.05ZM46.9568 92.0169C46.9568 92.0136 46.9303 91.9969 46.9171 91.9836C46.9012 92.0102 46.8879 92.0402 46.8694 92.0701C46.8826 92.0868 46.8932 92.1001 46.9065 92.1134C46.9224 92.0835 46.9409 92.0502 46.9568 92.0169ZM44.7756 92.4928L44.7677 92.4495L44.7491 92.4828L44.7756 92.4928ZM45.4011 79.5666C45.417 79.56 45.4355 79.5567 45.4435 79.54C45.4461 79.53 45.4329 79.5067 45.4276 79.4868C45.4037 79.5034 45.3825 79.5167 45.3613 79.53C45.3746 79.54 45.3878 79.5533 45.4011 79.5666ZM45.2447 56.3834C45.2368 56.3667 45.2341 56.3468 45.2235 56.3268C45.2235 56.3235 45.2156 56.3135 45.2129 56.3102C45.2076 56.3268 45.197 56.3435 45.1917 56.3601C45.2103 56.3701 45.2262 56.3767 45.2447 56.3834ZM45.7191 62.284C45.7854 62.2408 45.8781 62.1875 45.9152 62.121C45.9391 62.0843 45.9444 62.0178 45.9497 61.9446C45.8993 61.9412 45.8331 61.9213 45.7668 61.8913C45.7536 62.0211 45.735 62.1542 45.7191 62.284ZM44.2482 63.359C44.2429 63.359 44.2402 63.359 44.2349 63.3557C44.2323 63.3623 44.2296 63.369 44.2296 63.3756C44.2349 63.369 44.2402 63.3657 44.2482 63.359ZM43.901 63.6153C43.8162 63.592 43.7287 63.5487 43.6598 63.4954C43.6545 63.5986 43.6492 63.7018 43.6413 63.805C43.7261 63.7417 43.8135 63.6785 43.901 63.6153ZM45.2368 55.9041C45.841 55.8908 45.9656 56.5431 46.0981 57.1622C46.387 58.51 46.5116 59.9378 46.5672 61.3289C46.5725 61.5385 46.6441 61.9512 46.5407 62.1309C46.4851 62.2241 46.3313 62.3007 46.2571 62.3573C46.0981 62.4771 45.9391 62.5969 45.7801 62.7134C45.0539 63.2525 44.3065 63.7584 43.5989 64.3308L43.5936 64.3341C43.5114 64.4473 42.9681 64.4206 42.9734 64.3341C43.1139 62.0644 43.2676 59.7314 44.0123 57.6248C44.1687 57.1888 44.3489 56.7628 44.553 56.3601C44.7332 56.004 44.9081 55.9108 45.2368 55.9041ZM44.9002 82.928C44.8869 82.938 44.871 82.9479 44.8578 82.9613C44.8684 82.9646 44.8763 82.9712 44.8896 82.9779C44.8922 82.9613 44.8975 82.9413 44.9002 82.928ZM44.1528 81.1308C44.2535 81.0077 44.3144 80.8879 44.1395 80.7015C44.1448 80.8945 44.1501 81.0143 44.1528 81.1308ZM46.6918 90.5991C46.758 90.5659 46.8137 90.5526 46.8111 90.5392C46.8084 90.4394 46.7952 90.3429 46.7819 90.243C46.7395 90.263 46.6626 90.2797 46.6626 90.2996C46.66 90.3961 46.6785 90.4926 46.6918 90.5991ZM46.4824 69.5492C46.4586 69.5126 46.4427 69.4627 46.4215 69.4593C46.3923 69.456 46.3605 69.4793 46.3313 69.4959C46.2068 68.8969 46.0345 68.3145 45.7774 67.762C45.7138 67.6289 45.6423 67.4891 45.523 67.4192C45.3083 67.2961 45.0512 67.4425 44.8631 67.6123C43.7102 68.6539 43.4663 70.4944 43.4266 72.1517C43.3895 73.7292 43.461 75.3101 43.6757 76.8676L43.8003 76.8243C44.8604 76.3584 45.9205 75.8925 46.9807 75.4265C46.6096 73.4929 46.7236 71.4196 46.3366 69.5159C46.3605 69.5558 46.3843 69.5924 46.4109 69.6324C46.4347 69.6024 46.4559 69.5758 46.4824 69.5492ZM41.6933 89.0083C41.6588 89.0383 41.6244 89.0682 41.5926 89.0982C41.6138 89.1248 41.635 89.1481 41.6615 89.1747C41.688 89.1514 41.7251 89.1348 41.7357 89.1015C41.7436 89.0849 41.7092 89.0416 41.6933 89.0083ZM42.4513 61.482C42.2896 61.2557 42.1889 61.1791 42.0458 61.2191C41.9795 61.239 41.9318 61.3555 41.8762 61.4254C42.0961 61.4953 42.2737 61.5951 42.4513 61.482ZM42.5732 112.178C42.5864 112.168 42.5997 112.158 42.6103 112.148C42.6023 112.138 42.5891 112.112 42.5891 112.112C42.5679 112.125 42.552 112.142 42.5334 112.158C42.5493 112.165 42.5599 112.172 42.5732 112.178ZM42.6606 107.356C42.6315 107.339 42.5997 107.319 42.5679 107.309C42.5573 107.309 42.5414 107.339 42.5281 107.356C42.5599 107.373 42.5917 107.389 42.6235 107.406C42.6368 107.389 42.65 107.373 42.6606 107.356ZM42.0458 77.3768C42.0484 77.3668 42.0299 77.3468 42.0246 77.3302C42.0034 77.3502 41.9848 77.3701 41.9663 77.3901C41.9795 77.4001 41.9954 77.4067 42.0087 77.4134C42.0219 77.4034 42.0405 77.3934 42.0458 77.3768ZM43.3206 79.6099C43.3047 79.6365 43.2782 79.6598 43.2755 79.6898C43.2755 79.7131 43.3047 79.7397 43.3232 79.763C43.3338 79.7264 43.3471 79.6864 43.3524 79.6498C43.355 79.6399 43.3312 79.6232 43.3206 79.6099ZM41.9345 110.924C41.9504 110.92 41.9663 110.914 41.9795 110.907C41.9769 110.89 41.9795 110.867 41.9716 110.86C41.9583 110.847 41.9424 110.85 41.9239 110.847C41.9292 110.874 41.9318 110.897 41.9345 110.924ZM42.8806 77.3934C42.87 77.3768 42.8594 77.3435 42.8541 77.3468C42.825 77.3502 42.7958 77.3668 42.7693 77.3801C42.7773 77.3934 42.7905 77.4234 42.7985 77.4234C42.825 77.42 42.8541 77.4034 42.8806 77.3934ZM42.4725 111.569C42.4433 111.569 42.4168 111.569 42.3877 111.569C42.3877 111.569 42.3877 111.599 42.3877 111.612C42.4168 111.612 42.4433 111.612 42.4725 111.612C42.4725 111.596 42.4725 111.583 42.4725 111.569ZM42.4354 113.227C42.393 113.044 42.3903 112.977 42.3638 112.93C42.34 112.89 42.2923 112.87 42.2551 112.844C42.2472 112.9 42.2233 112.97 42.2366 113.017C42.2551 113.067 42.3108 113.1 42.4354 113.227ZM84.3714 43.8899C84.3502 43.8399 84.3317 43.79 84.3105 43.7401C84.2893 43.7601 84.2654 43.7867 84.2442 43.81C84.2548 43.8499 84.2575 43.9098 84.2787 43.9231C84.2999 43.9365 84.3396 43.9032 84.3714 43.8899ZM74.2445 105.412C74.2286 105.426 74.2101 105.436 74.1968 105.456C74.1942 105.456 74.2101 105.482 74.218 105.499C74.2286 105.489 74.2445 105.482 74.2498 105.469C74.2525 105.456 74.2445 105.432 74.2445 105.412ZM56.5536 47.0548C56.5271 47.0449 56.4874 47.0149 56.4741 47.0282C56.445 47.0515 56.4344 47.0981 56.4158 47.138C56.4503 47.1514 56.4874 47.1813 56.5165 47.168C56.5351 47.1613 56.5404 47.0948 56.5536 47.0548ZM74.5069 105.283L78.6626 104.723C78.3976 102.87 78.1352 101.013 77.8702 99.1589C77.6873 97.861 77.4965 96.5397 76.9452 95.3583C76.7332 94.9023 76.3542 94.4098 75.8692 94.4896C75.3259 94.5762 75.135 95.2717 75.0688 95.8342C74.6951 98.9692 74.5069 102.124 74.5069 105.283ZM57.5184 60.0476C57.5979 59.8379 57.6562 59.6881 57.7622 59.4053C57.468 59.585 57.468 59.585 57.5184 60.0476ZM58.2207 61.878L58.2101 61.8181L58.1836 61.8647L58.2207 61.878ZM75.3736 93.5578C75.3444 93.5778 75.3073 93.5977 75.2888 93.6277C75.2755 93.6543 75.2835 93.6942 75.2782 93.7741C75.3365 93.7142 75.3762 93.6842 75.4054 93.6377C75.4133 93.631 75.3842 93.5844 75.3736 93.5578ZM76.0865 116.388C76.219 116.461 76.3065 116.511 76.492 116.615C76.3833 116.272 76.2879 116.232 76.0865 116.388ZM78.7077 100.993C78.6997 101.013 78.6971 101.029 78.6918 101.046C78.705 101.049 78.7183 101.066 78.7315 101.063C78.7395 101.059 78.7448 101.036 78.7501 101.019C78.7368 101.009 78.7209 101.003 78.7077 100.993ZM78.5646 92.0934C78.5646 92.1134 78.5752 92.1301 78.5805 92.15C78.5831 92.1167 78.5884 92.0801 78.5911 92.0435C78.5805 92.0602 78.5672 92.0768 78.5646 92.0934ZM77.4753 84.8449C77.4435 84.795 77.4143 84.7384 77.3772 84.6985C77.3666 84.6885 77.3269 84.7251 77.2871 84.7517C77.3216 84.8017 77.3507 84.8549 77.3905 84.8849C77.4064 84.8982 77.4461 84.8582 77.4753 84.8449ZM56.7127 103.502C56.7127 103.532 56.7418 103.559 56.7577 103.589C56.7683 103.552 56.7842 103.515 56.7895 103.479C56.7922 103.465 56.7736 103.445 56.763 103.429C56.7445 103.452 56.7127 103.479 56.7127 103.502ZM58.9919 78.9942C58.9813 79.0075 58.9734 79.0175 58.9601 79.0275C58.976 79.0508 58.9893 79.0708 59.0052 79.0941C59.0078 79.0774 59.0131 79.0608 59.0184 79.0441C59.0105 79.0275 58.9999 79.0108 58.9919 78.9942ZM59.6015 79.4601C59.0741 79.2638 58.5997 79.8795 58.3744 80.4486C57.6456 82.2923 57.7198 84.3923 57.8099 86.4091C57.8576 87.4741 57.9795 88.153 58.0272 89.218C59.1032 89.0083 60.1819 88.7987 61.2606 88.589C61.2288 85.7801 61.1838 82.898 60.2296 80.3055C60.0998 79.956 59.9222 79.5766 59.6015 79.4601ZM60.8154 58.9194C60.8101 58.8828 60.7942 58.8461 60.7809 58.8095C60.7703 58.8262 60.7491 58.8428 60.7517 58.8561C60.757 58.8927 60.7703 58.926 60.7836 58.966C60.7968 58.9493 60.818 58.9327 60.8154 58.9194ZM60.9691 65.4723C60.977 65.5122 60.9929 65.5489 61.0035 65.5821C61.0168 65.5688 61.0406 65.5522 61.0406 65.5422C61.0327 65.5023 61.0168 65.4657 61.0035 65.429C60.9929 65.4457 60.9691 65.4623 60.9691 65.4723ZM57.4441 81.5102C57.4335 81.5036 57.4229 81.4969 57.415 81.4903C57.4097 81.5069 57.407 81.5269 57.4017 81.5435C57.415 81.5302 57.4309 81.5202 57.4441 81.5102ZM56.8558 52.0303C56.8187 51.987 56.7842 51.9438 56.7471 51.9038C56.7312 51.9338 56.7127 51.9637 56.6835 52.017C56.7206 52.0469 56.7577 52.0802 56.7948 52.0969C56.8107 52.1002 56.8346 52.0536 56.8558 52.0303ZM79.0204 113.09C79.0178 113.113 79.0151 113.14 79.0125 113.167C79.0416 113.16 79.0734 113.16 79.1052 113.153C79.1079 113.153 79.1079 113.127 79.1079 113.117C79.0787 113.103 79.0496 113.097 79.0204 113.09ZM60.3144 66.4607C60.3171 66.4674 60.3356 66.4607 60.3489 66.4607C60.3542 66.4441 60.3568 66.4241 60.3621 66.4042C60.3409 66.4042 60.3224 66.4042 60.3012 66.4042C60.3065 66.4241 60.3065 66.4441 60.3144 66.4607ZM57.7675 64.4739C57.4972 65.1229 57.407 65.8484 57.3302 66.5606C57.1235 68.4975 56.9936 70.4444 56.9353 72.3947L56.8505 72.5211C57.9106 72.2715 58.9707 72.0219 60.0309 71.769C60.1157 71.749 60.2058 71.7257 60.2614 71.6525C60.3197 71.5726 60.325 71.4661 60.325 71.363C60.3489 69.1465 60.3701 66.9067 59.893 64.7535C59.7817 64.2509 59.5909 63.6885 59.1589 63.5121C58.5944 63.2858 58.0219 63.8682 57.7675 64.4739ZM60.5424 71.9421C60.5424 71.9088 60.5424 71.8755 60.5424 71.8422C60.4947 71.8489 60.447 71.8555 60.3091 71.8755C60.447 71.9154 60.4947 71.9287 60.5424 71.9421ZM59.6704 75.8226C59.6625 75.8625 59.6386 75.9124 59.6492 75.9424C59.6598 75.9723 59.7022 75.9823 59.7314 76.0023C59.7473 75.989 59.7632 75.979 59.7764 75.9657C59.742 75.9191 59.7075 75.8692 59.6704 75.8226ZM95.5849 52.5129C95.5558 52.4962 95.5028 52.5362 95.4392 52.5595C95.4869 52.7092 95.577 52.7159 95.6565 52.7358C95.6777 52.7425 95.7042 52.6992 95.7254 52.6759C95.6803 52.6194 95.6406 52.5495 95.5849 52.5129ZM85.1374 50.8255C85.1453 50.8455 85.1533 50.8655 85.1586 50.8854C85.1745 50.8621 85.1904 50.8355 85.2036 50.8155C85.1904 50.8022 85.1771 50.7789 85.1639 50.7823C85.1559 50.7823 85.1453 50.8089 85.1374 50.8255ZM84.5357 57.1488C84.549 57.1222 84.5649 57.0923 84.5728 57.0623C84.5755 57.0557 84.549 57.039 84.5384 57.0257C84.5225 57.059 84.5066 57.0889 84.4933 57.1222C84.5066 57.1289 84.5304 57.1488 84.5357 57.1488ZM79.4286 92.7025C79.3835 92.6892 79.3358 92.7025 79.2801 92.7091C79.3014 92.7657 79.3146 92.8356 79.3332 92.8389C79.3729 92.8456 79.418 92.819 79.463 92.8056C79.4524 92.769 79.4445 92.7025 79.4286 92.7025ZM96.1388 55.2585C96.1282 55.2718 96.1309 55.2984 96.1282 55.3184C96.1521 55.3151 96.1759 55.3118 96.1998 55.3084C96.1918 55.2918 96.1866 55.2718 96.1813 55.2518C96.1654 55.2518 96.1441 55.2485 96.1388 55.2585ZM97.8165 52.2466C97.8324 52.3065 97.8404 52.3731 97.8642 52.423C97.8828 52.4596 97.9199 52.4796 97.949 52.5062C97.9623 52.4896 97.9861 52.4663 97.9861 52.4596C97.9596 52.3797 97.9331 52.3032 97.8987 52.2366C97.8934 52.2233 97.843 52.2433 97.8165 52.2466ZM85.299 47.5341C85.3123 47.5507 85.3229 47.564 85.3335 47.5807C85.3626 47.5674 85.3944 47.5541 85.4236 47.5407C85.413 47.5241 85.3997 47.4941 85.3891 47.4975C85.36 47.5008 85.3308 47.5174 85.299 47.5341ZM95.8553 42.4987C95.8208 42.4588 95.789 42.4222 95.7386 42.3656C95.7042 42.4455 95.6803 42.4921 95.6671 42.5487C95.6644 42.562 95.7254 42.6185 95.7386 42.6086C95.7837 42.5853 95.8155 42.5353 95.8553 42.4987ZM97.0108 45.1312C97.04 45.1512 97.0665 45.1745 97.093 45.1978C97.1062 45.1811 97.1195 45.1645 97.1327 45.1479C97.1036 45.1246 97.0771 45.0979 97.0453 45.078C97.0426 45.078 97.0241 45.1113 97.0108 45.1312ZM97.4322 41.933C97.4269 41.9396 97.4216 41.9429 97.4163 41.9496C97.4242 41.9629 97.4322 41.9762 97.4402 41.9895C97.4375 41.9696 97.4349 41.9529 97.4322 41.933ZM89.2189 40.0493C89.2136 40.0626 89.2083 40.0759 89.2029 40.0859C89.2136 40.0792 89.2242 40.0759 89.2374 40.0659C89.2295 40.0593 89.2268 40.0559 89.2189 40.0493ZM81.0082 89.0816C80.9578 89.1614 80.9048 89.2446 80.8518 89.3245C80.9419 89.431 81.0135 89.5941 81.1221 89.441C81.2361 89.2846 81.1672 89.1614 81.0082 89.0816ZM80.2555 79.0508C80.2661 79.0475 80.2767 79.0408 80.2873 79.0375C80.282 79.0175 80.2793 79.0009 80.274 78.9842C80.2687 79.0075 80.2608 79.0308 80.2555 79.0508ZM80.5868 78.3619C80.5576 78.3452 80.5285 78.3253 80.4993 78.3153C80.4913 78.3153 80.4675 78.3452 80.4675 78.3586C80.4675 78.3752 80.4913 78.4085 80.4993 78.4051C80.5285 78.3985 80.5576 78.3785 80.5868 78.3619ZM79.9507 82.3023C79.9533 82.3156 79.9586 82.3289 79.9613 82.3422C79.9772 82.3389 79.9904 82.3322 80.0037 82.3289C79.9878 82.3189 79.9692 82.309 79.9507 82.3023ZM79.9507 90.3795C79.9639 90.3662 79.9798 90.3562 79.9825 90.3429C79.9878 90.3329 79.9719 90.3129 79.9639 90.2996C79.948 90.3196 79.9321 90.3396 79.9162 90.3595C79.9268 90.3662 79.9401 90.3728 79.9507 90.3795ZM83.2556 53.5246C83.253 53.468 83.2609 53.3948 83.2371 53.3582C83.2079 53.3116 83.1523 53.2916 82.9986 53.1885C83.0728 53.3782 83.086 53.4547 83.1231 53.4946C83.1523 53.5279 83.2106 53.5146 83.2556 53.5246ZM80.3959 45.7869C80.4012 45.7669 80.4012 45.7336 80.3933 45.7236C80.3535 45.6937 80.3138 45.6704 80.274 45.6437C80.2661 45.6604 80.2502 45.687 80.2555 45.6937C80.2846 45.7436 80.3191 45.7869 80.3535 45.8301C80.3721 45.8102 80.3906 45.8035 80.3959 45.7869ZM87.2285 54.9057L87.2126 54.8525L87.1993 54.919L87.2285 54.9057ZM86.0411 51.2083L86.0067 51.1883L86.0014 51.2282L86.0411 51.2083ZM83.086 52.7824C83.1125 52.7691 83.1364 52.7458 83.1629 52.7259C83.139 52.6992 83.1152 52.6726 83.0913 52.6427C83.0754 52.6759 83.0569 52.7092 83.0463 52.7491C83.0463 52.7525 83.0754 52.7858 83.086 52.7824ZM83.3643 54.1203C83.3722 54.1536 83.3881 54.1835 83.4014 54.2168C83.412 54.2035 83.4226 54.1869 83.4332 54.1736C83.4226 54.1403 83.4067 54.107 83.3934 54.0737C83.3828 54.0904 83.3616 54.1103 83.3643 54.1203ZM57.8735 52.1934C57.8867 52.2 57.9027 52.2067 57.9186 52.2133C57.9318 52.2033 57.9451 52.1934 57.9583 52.1834C57.9504 52.1667 57.9424 52.1534 57.9345 52.1368C57.9132 52.1568 57.892 52.1734 57.8735 52.1934ZM54.1471 58.2704C54.1577 58.3003 54.2001 58.3103 54.2611 58.3536C54.2929 58.2837 54.3327 58.2205 54.3565 58.1439C54.3618 58.124 54.3247 58.0541 54.3009 58.0474C54.2187 58.0208 54.11 58.1739 54.1471 58.2704ZM53.3812 92.1533C53.3547 92.15 53.3255 92.1467 53.2964 92.1434C53.3096 92.1533 53.3229 92.1766 53.3361 92.1766C53.3494 92.1766 53.3653 92.16 53.3812 92.1533ZM53.6277 50.9387C53.6144 50.942 53.5959 50.942 53.5906 50.952C53.5826 50.9686 53.5853 50.9953 53.5826 51.0152C53.6012 51.0086 53.6224 51.0052 53.6436 50.9986C53.6383 50.9786 53.633 50.9587 53.6277 50.9387ZM53.6409 76.2885C53.6568 76.2785 53.6727 76.2652 53.686 76.2585C53.6621 76.2352 53.6383 76.1986 53.6144 76.1986C53.5906 76.1986 53.5667 76.2352 53.5429 76.2552C53.5747 76.2652 53.6091 76.2785 53.6409 76.2885ZM61.8013 77.1471C61.8119 77.1105 61.8304 77.0739 61.8357 77.0373C61.8384 77.0207 61.8172 77.0007 61.8066 76.9841C61.788 77.0107 61.7536 77.034 61.7536 77.0573C61.7536 77.0872 61.7827 77.1172 61.8013 77.1471ZM72.4052 116.235C72.4158 116.252 72.4317 116.288 72.437 116.285C72.4688 116.275 72.5006 116.255 72.5324 116.238C72.5218 116.222 72.5059 116.189 72.4953 116.189C72.4635 116.199 72.4344 116.219 72.4052 116.235ZM53.0234 48.01C53.0817 47.9934 53.1374 47.9601 53.2169 47.9268C53.1612 47.8636 53.1294 47.8203 53.1188 47.827C53.0579 47.8636 53.0022 47.9135 52.9439 47.9601C52.9704 47.9767 53.0022 48.0167 53.0234 48.01ZM50.601 115.593C50.6063 115.576 50.609 115.556 50.6143 115.54C50.6037 115.533 50.5904 115.53 50.5798 115.523C50.5745 115.543 50.5692 115.56 50.5692 115.576C50.5692 115.583 50.5904 115.586 50.601 115.593ZM72.9326 85.5205C73.0095 85.4473 73.0837 85.4007 73.0784 85.3774C73.0651 85.3009 73.0201 85.231 72.9909 85.1578C72.9485 85.1944 72.8796 85.2277 72.877 85.2676C72.8717 85.3375 72.9061 85.4107 72.9326 85.5205ZM52.5039 62.9463C52.5331 62.9363 52.5596 62.923 52.5861 62.9097C52.5808 62.8964 52.5755 62.8731 52.5702 62.8731C52.5437 62.8798 52.5172 62.8897 52.4907 62.8997C52.496 62.9164 52.5039 62.9463 52.5039 62.9463ZM49.4137 110.338C49.419 110.338 49.4243 110.315 49.4296 110.298C49.4137 110.295 49.3978 110.285 49.3845 110.285C49.3766 110.285 49.3739 110.311 49.3686 110.328C49.3845 110.331 49.3978 110.341 49.4137 110.338ZM72.0792 73.8524C72.0925 73.8424 72.1137 73.8357 72.1163 73.8224C72.1216 73.7858 72.119 73.7459 72.119 73.7059C72.0925 73.7159 72.066 73.7226 72.0421 73.7326C72.0554 73.7725 72.066 73.8124 72.0792 73.8524ZM56.1137 70.4977C56.1137 70.4877 56.0845 70.4544 56.0819 70.4544C56.0607 70.4744 56.0236 70.501 56.0262 70.521C56.0315 70.5543 56.058 70.5809 56.0766 70.6142C56.0898 70.5742 56.1057 70.5376 56.1137 70.4977ZM55.9891 96.9757C56.0315 96.979 56.0713 96.9657 56.1243 96.9591C56.0951 96.9058 56.0819 96.8559 56.058 96.8492C56.0315 96.8426 55.9944 96.8659 55.9706 96.8892C55.9626 96.8958 55.9812 96.9757 55.9891 96.9757ZM56.437 101.678C56.4211 101.645 56.4105 101.588 56.3893 101.582C56.3655 101.572 56.331 101.605 56.2992 101.622C56.3231 101.665 56.3443 101.708 56.3681 101.751C56.3893 101.725 56.4132 101.705 56.437 101.678ZM55.6472 115.553C55.6764 115.546 55.7055 115.53 55.732 115.52C55.7082 115.5 55.6817 115.483 55.6525 115.473C55.6446 115.47 55.6207 115.496 55.6207 115.51C55.6207 115.523 55.6393 115.553 55.6472 115.553ZM51.2795 115.017C51.2848 115 51.2874 114.987 51.2954 114.967C51.2742 114.967 51.2556 114.967 51.2344 114.964C51.2397 114.98 51.2397 115.004 51.2477 115.017C51.253 115.024 51.2662 115.017 51.2795 115.017ZM55.854 47.6506C55.8513 47.7238 55.8725 47.8536 55.907 47.8636C56.0024 47.9002 56.1084 47.8869 56.3072 47.9002C56.1508 47.7371 56.0739 47.6439 55.9838 47.5807C55.9573 47.5607 55.854 47.6206 55.854 47.6506ZM53.5031 89.3178C53.5535 89.2446 53.5535 89.1481 53.5535 89.0549C53.5535 88.0465 53.5535 87.0381 53.5508 86.0297C53.5508 84.6586 53.5482 83.2708 53.2407 81.9462C53.1241 81.4403 52.8829 80.8646 52.4191 80.7947C52.2283 80.7647 52.0348 80.8346 51.8626 80.9345C50.9058 81.4969 50.6302 82.8714 50.495 84.0762C50.2697 86.1096 50.124 87.9001 50.0922 89.9468C51.1417 89.7804 52.1912 89.6107 53.2381 89.4443C53.3361 89.4277 53.4448 89.4077 53.5031 89.3178ZM54.1949 116.591C54.2214 116.505 54.2452 116.432 54.2664 116.358C54.2373 116.345 54.1895 116.315 54.1816 116.325C54.1498 116.375 54.1259 116.435 54.11 116.495C54.1074 116.508 54.1498 116.541 54.1949 116.591ZM55.3106 70.9802C55.3106 70.9802 55.2894 70.9802 55.2735 70.9802C55.2735 71.0235 55.2735 71.0634 55.2735 71.1067C55.2894 71.1067 55.3 71.1067 55.3133 71.1067C55.3133 71.0634 55.3133 71.0235 55.3106 70.9802ZM53.5932 96.0272C53.1029 96.0205 52.8008 96.5697 52.6285 97.0489C51.6399 99.7946 51.2609 102.773 51.5339 105.685L51.6081 105.828C52.814 105.941 54.0146 106.058 55.2205 106.171C55.3186 103.116 55.4113 99.9843 54.5155 97.0722C54.3645 96.5896 54.0835 96.0339 53.5932 96.0272ZM55.6393 54.5629C55.6207 54.5829 55.5916 54.6062 55.5916 54.6295C55.5916 54.6595 55.6181 54.6861 55.634 54.7127C55.6446 54.6761 55.6605 54.6428 55.6658 54.6062C55.6684 54.5929 55.6472 54.5763 55.6393 54.5629ZM55.1914 89.7305C55.1755 89.7638 55.1622 89.7971 55.149 89.8304C55.1596 89.847 55.1702 89.867 55.1781 89.8836C55.194 89.847 55.2126 89.8137 55.2232 89.7771C55.2258 89.7671 55.202 89.7472 55.1914 89.7305ZM61.2474 106.051L61.2288 105.991L61.2103 106.051H61.2474ZM63.1291 105.758C63.0708 103.133 62.8826 100.507 62.5646 97.8976C62.4453 96.9191 62.2571 95.8575 61.4064 95.2085C61.3057 95.1286 61.1917 95.0587 61.0565 95.0354C60.8949 95.0088 60.7305 95.0587 60.5848 95.1286C59.7923 95.508 59.5697 96.38 59.4398 97.1488C58.9389 100.097 58.5493 103.086 58.8727 106.038V105.985C60.28 105.792 61.7085 105.719 63.1291 105.758ZM68.4112 93.1185C68.4562 93.0985 68.4986 93.0652 68.5437 93.032C68.5172 92.9787 68.4986 92.9421 68.4801 92.9088C68.4403 92.9421 68.3953 92.972 68.3608 93.0186C68.3555 93.0253 68.4032 93.1218 68.4112 93.1185ZM68.9677 73.5395C68.9386 73.5329 68.9068 73.5096 68.8829 73.5196C68.8564 73.5329 68.8458 73.5761 68.8273 73.6061C68.8564 73.6161 68.8909 73.6394 68.9147 73.6261C68.9386 73.6161 68.9492 73.5695 68.9677 73.5395ZM71.7294 115.4C71.7347 115.436 71.7479 115.47 71.7612 115.51C71.7718 115.493 71.7956 115.48 71.793 115.47C71.7903 115.433 71.7771 115.4 71.7638 115.363C71.7532 115.377 71.7267 115.39 71.7294 115.4ZM59.4663 95.1353C59.4557 95.102 59.4425 95.072 59.4292 95.0388C59.4186 95.0521 59.4054 95.0687 59.3948 95.0787C59.408 95.112 59.4213 95.1453 59.4319 95.1752C59.4451 95.1619 59.4663 95.1453 59.4663 95.1353ZM58.8568 118.977C58.8753 119.054 58.9071 119.131 58.9363 119.204C58.9442 119.22 58.9707 119.22 58.9866 119.23C58.9972 119.19 59.0264 119.144 59.0184 119.111C58.9972 119.034 58.9601 118.971 58.931 118.898C58.9045 118.924 58.8541 118.961 58.8568 118.977ZM59.3073 116.964C59.3842 116.838 59.363 116.708 59.2093 116.618C59.1748 116.724 59.143 116.828 59.0953 116.984C59.1854 116.981 59.2808 117.007 59.3073 116.964ZM59.2252 113.197H59.1934L59.2119 113.243L59.2252 113.197ZM64.388 101.535C64.4012 101.568 64.4436 101.588 64.4914 101.635C64.5258 101.555 64.5576 101.479 64.5868 101.405C64.5576 101.385 64.5232 101.342 64.494 101.349C64.4224 101.369 64.3456 101.405 64.388 101.535ZM67.473 110.81C67.4915 110.804 67.5074 110.804 67.526 110.797C67.5207 110.78 67.518 110.764 67.5127 110.747C67.5021 110.751 67.4862 110.751 67.4836 110.757C67.4756 110.77 67.4756 110.79 67.473 110.81ZM68.17 114.069C68.1726 114.089 68.1912 114.109 68.2018 114.129C68.1992 114.109 68.1992 114.085 68.1938 114.065C68.1886 114.022 68.1779 113.982 68.17 113.939C68.17 113.939 68.1674 113.942 68.1674 113.945C68.1674 113.985 68.1647 114.025 68.17 114.069ZM70.5235 105.409C70.6056 105.412 70.6958 105.416 70.7673 105.369C70.8839 105.289 70.8892 105.119 70.8813 104.976C70.8124 103.502 70.7435 102.031 70.6719 100.557C70.5924 98.8527 70.4996 97.0955 69.7787 95.5646C69.5535 95.092 69.1771 94.5895 68.6656 94.6161C68.4085 94.6294 68.17 94.7825 67.9924 94.9789C67.6585 95.3483 67.5048 95.8475 67.3749 96.3334C66.5904 99.3186 66.4049 102.47 66.8342 105.529C68.0057 105.599 69.3547 105.339 70.5235 105.409ZM69.4103 115.187C69.4262 115.174 69.4528 115.154 69.4501 115.147C69.4395 115.11 69.4236 115.08 69.4077 115.05C69.3971 115.08 69.3812 115.114 69.3732 115.147C69.3706 115.154 69.3997 115.174 69.4103 115.187ZM68.4403 113.756C68.3953 113.752 68.3343 113.722 68.3078 113.746C68.2522 113.796 68.2124 113.876 68.1674 113.942L68.17 113.939C68.2522 113.999 68.3396 114.045 68.4112 113.932C68.4377 113.892 68.4297 113.816 68.4403 113.756ZM65.7821 107.432C65.8245 107.486 65.8881 107.512 65.9464 107.549C65.957 107.512 65.9702 107.476 65.9914 107.409C65.9411 107.366 65.8854 107.316 65.8298 107.269C65.8112 107.326 65.7688 107.412 65.7821 107.432ZM67.033 105.848C67.0463 105.838 67.0701 105.828 67.0701 105.815C67.0754 105.798 67.0595 105.778 67.0542 105.758C67.0304 105.778 67.0092 105.798 66.988 105.818C67.0039 105.832 67.0198 105.838 67.033 105.848ZM68.6815 88.173C68.7345 88.0698 68.7372 87.9434 68.7398 87.8235C68.7663 86.5489 68.7372 85.2776 68.663 84.0063C68.6656 84.0063 68.6656 84.0029 68.6683 84.0029C68.6656 83.9996 68.663 83.993 68.663 83.9863C68.5755 82.5319 68.4271 81.0809 68.2124 79.6399C68.1567 79.2871 68.0984 78.9243 67.9394 78.6181C67.7778 78.312 67.4915 78.059 67.1735 78.059C66.8448 78.0624 66.5639 78.3186 66.3439 78.5882C64.934 80.3055 64.8147 82.8714 64.8412 85.2044C64.8544 86.4757 64.9525 87.1646 65.0082 88.4326C66.0312 88.4293 67.0542 88.4226 68.0799 88.4193C68.3025 88.4159 68.5675 88.3893 68.6815 88.173ZM67.958 109.945H67.9315L67.9447 109.992L67.958 109.945ZM68.2893 115.01C68.3025 115.047 68.3184 115.08 68.329 115.117C68.3317 115.127 68.3052 115.154 68.2919 115.157C68.2813 115.157 68.2548 115.13 68.2548 115.12C68.2628 115.084 68.2787 115.047 68.2893 115.01Z" fill="white"/>
</svg>
