<svg width="43" height="3" viewBox="0 0 43 3" fill="none" xmlns="http://www.w3.org/2000/svg">
<path d="M0 1.56928C2.01427 1.33777 5.08173 1.1434 8.86338 1.00765C12.645 0.871895 16.9936 0.800049 21.4286 0.800049C25.8635 0.800049 30.2121 0.871895 33.9937 1.00765C37.7754 1.1434 40.8429 1.33777 42.8571 1.56928C40.8429 1.80079 37.7754 1.99516 33.9937 2.13091C30.2121 2.26667 25.8635 2.33851 21.4286 2.33851C16.9936 2.33851 12.645 2.26667 8.86338 2.13091C5.08173 1.99516 2.01427 1.80079 0 1.56928V1.56928ZM21.4286 2.08176C23.7482 2.08176 25.9729 2.02777 27.6132 1.93166C29.2534 1.83555 30.1749 1.7052 30.1749 1.56928C30.1749 1.43336 29.2534 1.30301 27.6132 1.2069C25.9729 1.11079 23.7482 1.0568 21.4286 1.0568C19.1089 1.0568 16.8842 1.11079 15.244 1.2069C13.6037 1.30301 12.6822 1.43336 12.6822 1.56928C12.6822 1.7052 13.6037 1.83555 15.244 1.93166C16.8842 2.02777 19.1089 2.08176 21.4286 2.08176V2.08176ZM21.4286 1.82552C20.2687 1.82552 19.1564 1.79852 18.3363 1.75047C17.5161 1.70242 17.0554 1.63724 17.0554 1.56928C17.0554 1.50132 17.5161 1.43615 18.3363 1.38809C19.1564 1.34004 20.2687 1.31304 21.4286 1.31304C22.5884 1.31304 23.7007 1.34004 24.5209 1.38809C25.341 1.43615 25.8017 1.50132 25.8017 1.56928C25.8017 1.63724 25.341 1.70242 24.5209 1.75047C23.7007 1.79852 22.5884 1.82552 21.4286 1.82552Z" fill="#1890FF"/>
</svg>
